<?xml version="1.0" encoding="utf-8"?>
<!-- Generator: Adobe Illustrator 18.1.1, SVG Export Plug-In . SVG Version: 6.00 Build 0)  -->
<svg version="1.1" id="Capa_1" xmlns="http://www.w3.org/2000/svg" xmlns:xlink="http://www.w3.org/1999/xlink" x="0px" y="0px"
	 viewBox="0.5 163.5 611 465" enable-background="new 0.5 163.5 611 465" xml:space="preserve">
<g>
	<g>
		<path fill="#BD8067" d="M178.7,556.1l62.8,72.3h297.3l62.8-72.3c4.3-4.9,7.1-10.6,8.7-16.7c2-8.3,1.3-17.3-2.2-25.4l-64.7-147.1
			l-10.3-23.7H247.5l-0.5,1.1l-7.5,17.2l-67,152.5C166.1,528.1,168.7,544.5,178.7,556.1"/>
		<g opacity="0.4">
			<g>
				<path fill="#BD8067" d="M436.2,534.2l174.3,5.3c-1.4,6.1-4.4,11.8-8.7,16.7L539,628.4H363L436.2,534.2z"/>
			</g>
		</g>
		<path fill="#EBD0B0" d="M10.3,556.1l62.8,72.3h297.3l62.8-72.3c10.1-11.6,12.6-28.1,6.4-42.1l-66-150.2l-9.1-20.7H78.9l-1.2,2.7
			l-5.6,12.9L26.8,461.8l4.9,2.4l-2.4,7.2l-6.5-0.4L3.9,514C-2.4,528.1,0.2,544.5,10.3,556.1"/>
		<g opacity="0.6">
			<g>
				<g>
					<g>
						<defs>
							<rect id="SVGID_1_" x="72.1" y="343.2" width="471.6" height="23.7"/>
						</defs>
						<clipPath id="SVGID_2_">
							<use xlink:href="#SVGID_1_"  overflow="visible"/>
						</clipPath>
						<path clip-path="url(#SVGID_2_)" fill="#BD8067" d="M72.1,358.8c21.4,0.2,88.9,1.2,167.3,2.6c43.4,0.7,90.2,1.5,134.3,2.3
							c72.8,1.3,138.4,2.5,169.9,3.1l-10.5-23.7H354l-107,1l-169.3,1.7L72.1,358.8z"/>
					</g>
				</g>
			</g>
		</g>
		<polygon fill="#0099DB" points="31.8,464.2 29.2,471.4 278.7,486.3 362.3,628.4 362.3,628.5 370.4,628.4 284.9,479.2 26.8,461.8 
					"/>
		<polygon opacity="0.2" enable-background="new    " points="31.8,464.2 284.3,480.9 370.4,628.4 284.9,479.2 26.8,461.8 		"/>
		<rect x="63.4" y="335.8" fill="#212955" width="480" height="14.4"/>
		<rect x="377" y="335.8" fill="#161C3B" width="166.3" height="14.4"/>
		<rect x="177.8" y="333.7" fill="#2D3352" width="92.5" height="3.5"/>
		<polygon fill="#404A75" points="68.6,163.5 252.4,163.5 270.6,289.6 265.5,294.8 86.9,289.6 63.5,168.6 		"/>
		<polygon fill="#212955" points="63.5,168.6 247.3,168.6 265.5,294.8 81.7,294.8 		"/>
		<polygon fill="#1B203B" points="155.6,259.3 175,259.3 186.3,337.3 166.8,337.3 		"/>
		<polygon fill="#2D3352" points="152.1,259.3 171.4,259.3 182.6,337.3 163.3,337.3 		"/>
	</g>
</g>
</svg>
