<?xml version="1.0" encoding="utf-8"?>
<!-- Generator: Adobe Illustrator 18.1.1, SVG Export Plug-In . SVG Version: 6.00 Build 0)  -->
<svg version="1.1" id="Capa_1" xmlns="http://www.w3.org/2000/svg" xmlns:xlink="http://www.w3.org/1999/xlink" x="0px" y="0px"
	 viewBox="131 356 350 80" enable-background="new 131 356 350 80" xml:space="preserve">
<g>
	
		<linearGradient id="SVGID_1_" gradientUnits="userSpaceOnUse" x1="56.2923" y1="-92.272" x2="206.5538" y2="-92.272" gradientTransform="matrix(2.3293 0 0 2.3293 -0.12 610.9799)">
		<stop  offset="0" style="stop-color:#BED700"/>
		<stop  offset="0.2909" style="stop-color:#A2CC00"/>
		<stop  offset="0.7567" style="stop-color:#7BBC00"/>
		<stop  offset="1" style="stop-color:#6CB600"/>
	</linearGradient>
	<path fill="url(#SVGID_1_)" d="M131,436.1h319.3c2.3,0,4.5-1.1,5.8-2.9l23.6-33c1.7-2.4,1.7-5.8,0-8.3l-23.6-33
		c-1.3-1.8-3.5-2.9-5.8-2.9H131V436.1z"/>
	
		<linearGradient id="SVGID_2_" gradientUnits="userSpaceOnUse" x1="56.2923" y1="-92.272" x2="206.5538" y2="-92.272" gradientTransform="matrix(2.3293 0 0 2.3293 -0.12 610.9799)">
		<stop  offset="0" style="stop-color:#BED700"/>
		<stop  offset="0.2909" style="stop-color:#A2CC00"/>
		<stop  offset="0.7567" style="stop-color:#7BBC00"/>
		<stop  offset="1" style="stop-color:#6CB600"/>
	</linearGradient>
	<path fill="url(#SVGID_2_)" d="M131,436.1h319.3c2.3,0,4.5-1.1,5.8-2.9l23.6-33c1.7-2.4,1.7-5.8,0-8.3l-23.6-33
		c-1.3-1.8-3.5-2.9-5.8-2.9H131V436.1z"/>
</g>
</svg>
