<?xml version="1.0" encoding="utf-8"?>
<!-- Generator: Adobe Illustrator 24.0.0, SVG Export Plug-In . SVG Version: 6.00 Build 0)  -->
<svg version="1.1" id="Capa_1" xmlns="http://www.w3.org/2000/svg" xmlns:xlink="http://www.w3.org/1999/xlink" x="0px" y="0px"
	 viewBox="0 0 153.5 356.1" style="enable-background:new 0 0 153.5 356.1;" xml:space="preserve">
<style type="text/css">
	.st0{fill:url(#SVGID_1_);}
	.st1{fill:url(#SVGID_2_);}
	.st2{fill:url(#SVGID_3_);}
	.st3{fill:url(#SVGID_4_);}
	.st4{fill:url(#SVGID_5_);}
	.st5{fill:url(#SVGID_6_);}
	.st6{fill:url(#SVGID_7_);}
	.st7{fill:url(#SVGID_8_);}
	.st8{fill:#271E1C;}
	.st9{fill:#8A8082;}
	.st10{fill:url(#SVGID_9_);}
	.st11{fill:url(#SVGID_10_);}
	.st12{fill:url(#SVGID_11_);}
	.st13{fill:url(#SVGID_12_);}
	.st14{fill:url(#SVGID_13_);}
	.st15{fill:url(#SVGID_14_);}
	.st16{fill:#6D6367;}
	.st17{fill:#656565;}
	.st18{fill:#9A9999;}
</style>
<g>
	<g>
		
			<linearGradient id="SVGID_1_" gradientUnits="userSpaceOnUse" x1="28.5682" y1="86.9465" x2="89.726" y2="114.4811" gradientTransform="matrix(1 0 0 -1 17.0684 422.2597)">
			<stop  offset="0.2118" style="stop-color:#E7E8EA"/>
			<stop  offset="1" style="stop-color:#BFBEBF"/>
		</linearGradient>
		<path class="st0" d="M98,300.8c-6.6-15.1-14.9-23.2-24.8-24.3c-12.6,1-21.6,9.5-27,25.6c-3.8,14.6-6,32.5-6.6,53.7h1.3
			c0.1,0,0.2,0,0.3,0c1.4-0.2,2.9-0.4,4.4-0.5c17.2-1.7,37.6-1.5,61.1,0.6C106.4,330.9,103.5,312.5,98,300.8z"/>
		
			<linearGradient id="SVGID_2_" gradientUnits="userSpaceOnUse" x1="106.1347" y1="210.1377" x2="117.0795" y2="210.1377" gradientTransform="matrix(1 0 0 -1 17.0684 422.2597)">
			<stop  offset="9.019607e-02" style="stop-color:#E9E9EB"/>
			<stop  offset="0.8235" style="stop-color:#DFE0E1"/>
		</linearGradient>
		<path class="st1" d="M134.1,76.9c-4.6-8.3-7.3-10.6-8.3-7.1l-2.7,286.3c2.5,0.1,4.4-0.2,5.7-0.9c1.7-3.3,2.6-7.4,2.6-12.5
			L134.1,76.9z"/>
		
			<linearGradient id="SVGID_3_" gradientUnits="userSpaceOnUse" x1="115.0581" y1="214.919" x2="129.3554" y2="214.919" gradientTransform="matrix(1 0 0 -1 17.0684 422.2597)">
			<stop  offset="0.2118" style="stop-color:#AFB0B4"/>
			<stop  offset="1" style="stop-color:#707277"/>
		</linearGradient>
		<path class="st2" d="M134.2,67.4l-0.1,9.4l-2.7,265.8c0,5.1-0.8,9.2-2.6,12.5c0.8-0.4,1.3-1,1.6-1.8c1.3-2.1,2.4-4.2,3.4-6.3
			c1.9-4.1,3.4-8.3,4.7-12.5h1c0.9-2.8,1.7-5.6,2.3-8.5c3.3-26.2,4.9-52.3,4.7-78.5V59.9C142.5,58.5,138.4,61,134.2,67.4z"/>
		
			<linearGradient id="SVGID_4_" gradientUnits="userSpaceOnUse" x1="117.1534" y1="362.4824" x2="129.528" y2="362.4824" gradientTransform="matrix(1 0 0 -1 17.0684 422.2597)">
			<stop  offset="9.019607e-02" style="stop-color:#787A7A"/>
			<stop  offset="0.8235" style="stop-color:#131418"/>
		</linearGradient>
		<path class="st3" d="M137.3,52.1h-2.9l-0.1,15.3c4.1-6.4,8.2-8.9,12.4-7.5v-6.2L137.3,52.1z"/>
		
			<linearGradient id="SVGID_5_" gradientUnits="userSpaceOnUse" x1="120.2347" y1="378.1847" x2="136.4054" y2="378.1847" gradientTransform="matrix(1 0 0 -1 17.0684 422.2597)">
			<stop  offset="0" style="stop-color:#0F0F0F"/>
			<stop  offset="1" style="stop-color:#0C0C0D"/>
		</linearGradient>
		<path class="st4" d="M153.5,37.2v-1.3l-11.8-2.7h-4.3v18.9l9.3,1.7l6.9,1.2v-1V37.2z"/>
		
			<linearGradient id="SVGID_6_" gradientUnits="userSpaceOnUse" x1="57.1518" y1="373.0713" x2="57.3983" y2="65.4089" gradientTransform="matrix(1 0 0 -1 17.0684 422.2597)">
			<stop  offset="0" style="stop-color:#B3B0B1"/>
			<stop  offset="5.882353e-02" style="stop-color:#E1E1E2"/>
			<stop  offset="0.9216" style="stop-color:#E1E1E2"/>
			<stop  offset="1" style="stop-color:#CBC9C8"/>
		</linearGradient>
		<path class="st5" d="M14.1,52.3l3.9,77.2l0.6,75.6l7.5,150.9h13.4c0.6-21.2,2.8-39.1,6.6-53.7c5.4-16.1,14.4-24.7,27-25.6
			c9.9,1.2,18.2,9.3,24.8,24.3c5.6,11.7,8.5,30.1,8.7,55.2h16.6l2.7-286.3c1-3.5,3.7-1.2,8.3,7.1l0.1-9.4l0.1-15.3L14.1,52.3z"/>
		
			<linearGradient id="SVGID_7_" gradientUnits="userSpaceOnUse" x1="-5.1118" y1="218.0182" x2="2.5298" y2="218.3386" gradientTransform="matrix(1 0 0 -1 17.0684 422.2597)">
			<stop  offset="0" style="stop-color:#9D9A95"/>
			<stop  offset="1" style="stop-color:#D7D7D5"/>
		</linearGradient>
		<path class="st6" d="M14.1,52.3H5.4l14.4,295.2c-0.4,5.9,1.7,8.7,6.3,8.5L18.6,205L18,129.5L14.1,52.3z"/>
		
			<linearGradient id="SVGID_8_" gradientUnits="userSpaceOnUse" x1="-14.3568" y1="379.5405" x2="120.2347" y2="379.5405" gradientTransform="matrix(1 0 0 -1 17.0684 422.2597)">
			<stop  offset="0" style="stop-color:#383938"/>
			<stop  offset="0.9255" style="stop-color:#3A3A3C"/>
			<stop  offset="0.9765" style="stop-color:#4E5254"/>
		</linearGradient>
		<path class="st7" d="M2.7,33.2v19.1h2.7h8.6l120.3-0.1h2.9V33.2H2.7z"/>
		<path class="st8" d="M2.7,33.2H0v19.1h2.7V33.2z"/>
		<path class="st9" d="M14.5,9.7h1.9c1.5-3.9,4.4-6.4,8.8-7.2C20.8,2.4,17.2,4.8,14.5,9.7z"/>
		
			<linearGradient id="SVGID_9_" gradientUnits="userSpaceOnUse" x1="-17.0684" y1="396.5986" x2="125.6578" y2="396.5986" gradientTransform="matrix(1 0 0 -1 17.0684 422.2597)">
			<stop  offset="0" style="stop-color:#A7A5A1"/>
			<stop  offset="9.019607e-02" style="stop-color:#EFEFF1"/>
		</linearGradient>
		<path class="st10" d="M142.7,18.2l-73.2,0L0,18.1l0,15h2.7h134.6h4.3C141,27.5,141.4,22.5,142.7,18.2z"/>
		
			<linearGradient id="SVGID_10_" gradientUnits="userSpaceOnUse" x1="126.459" y1="404.8195" x2="135.0373" y2="396.2411" gradientTransform="matrix(1 0 0 -1 17.0684 422.2597)">
			<stop  offset="9.019607e-02" style="stop-color:#A5A6A8"/>
			<stop  offset="0.8235" style="stop-color:#84848C"/>
		</linearGradient>
		<path class="st11" d="M152.5,8.8c-1.8-1-4-0.2-6.4,2.5c-1.5,2-2.7,4.4-3.5,7c-1.3,4.2-1.7,9.2-1.1,14.9l11.8,2.7V13.4
			C153.3,11.7,153,10.2,152.5,8.8z"/>
		
			<linearGradient id="SVGID_11_" gradientUnits="userSpaceOnUse" x1="57.7458" y1="420.1398" x2="57.7458" y2="416.0971" gradientTransform="matrix(1 0 0 -1 17.0684 422.2597)">
			<stop  offset="0" style="stop-color:#CAC9CB"/>
			<stop  offset="0.9765" style="stop-color:#E1E0DE"/>
		</linearGradient>
		<path class="st12" d="M121.8,5.9c0.9-1.5,2.2-2.7,3.9-3.6l-91,0.1h-3.4c-2.4,0.9-4.2,2-5.6,3.5H121.8 M123.1,7.1
			c1.3-2.3,2.9-3.9,4.7-4.7h-2.1c-1.7,0.9-3,2.1-3.9,3.6h-96c1.4-1.4,3.3-2.6,5.6-3.5h-2c-3.3,1.2-5.9,2.7-7.6,4.6H123.1z"/>
		
			<linearGradient id="SVGID_12_" gradientUnits="userSpaceOnUse" x1="58.7811" y1="419.1045" x2="58.7811" y2="413.3856" gradientTransform="matrix(1 0 0 -1 17.0684 422.2597)">
			<stop  offset="0" style="stop-color:#CCCBCD"/>
			<stop  offset="0.9765" style="stop-color:#E4E4E3"/>
		</linearGradient>
		<path class="st13" d="M127.8,2.3c-1.8,0.9-3.4,2.4-4.7,4.7H21.8c1.7-1.9,4.3-3.4,7.6-4.6h-4.2c-4.4,0.9-7.3,3.3-8.8,7.2h52.8h59.8
			l4.5-5.4c0.6-0.8,1.2-1.5,1.9-2L127.8,2.3z"/>
		
			<linearGradient id="SVGID_13_" gradientUnits="userSpaceOnUse" x1="6.1682" y1="427.8996" x2="14.8698" y2="412.8628" gradientTransform="matrix(1 0 0 -1 17.0684 422.2597)">
			<stop  offset="9.019607e-02" style="stop-color:#CBC8C1"/>
			<stop  offset="0.8235" style="stop-color:#ECECEC"/>
		</linearGradient>
		<path class="st14" d="M69.5,18.2l-0.4-8.5H16.4h-1.9c2.7-4.9,6.3-7.3,10.7-7.2c-2.4-2.1-5.3-2.8-8.8-2.1C6.7,2.9,1.2,8.8,0,18.1
			L69.5,18.2z"/>
		
			<linearGradient id="SVGID_14_" gradientUnits="userSpaceOnUse" x1="123.5129" y1="396.2679" x2="102.1656" y2="406.9169" gradientTransform="matrix(1 0 0 -1 17.0684 422.2597)">
			<stop  offset="9.019607e-02" style="stop-color:#CBC8C1"/>
			<stop  offset="0.8235" style="stop-color:#ECECEC"/>
		</linearGradient>
		<path class="st15" d="M69.1,9.7l0.4,8.5l73.2,0c0.8-2.6,1.9-4.9,3.5-7c2.4-2.7,4.5-3.5,6.4-2.5c-1.7-5.4-5.4-8.3-10.9-8.8
			c-2.5,0.1-4.6,0.8-6.3,2.3c-0.7,0.6-1.3,1.2-1.9,2l-4.5,5.4H69.1z"/>
		<g>
			<path class="st16" d="M123.1,8H21.8c-0.4,0-0.7-0.2-0.9-0.6c-0.1-0.3-0.1-0.7,0.2-1c1.8-2,4.5-3.6,8-4.8c0.4-0.1,0.9,0,1.1,0.4
				c0.3-0.1,0.6-0.2,0.9-0.4c0.5-0.2,1,0.1,1.2,0.6c0.2,0.5-0.1,1-0.6,1.2c-1.3,0.5-2.4,1-3.3,1.6h92.9c1-1.5,2.3-2.7,4-3.5
				c0.5-0.2,1,0,1.3,0.4c0,0,0,0,0,0c0.3-0.2,0.6-0.3,0.9-0.5c0.5-0.2,1,0,1.2,0.5c0.2,0.5,0,1-0.5,1.2c-1.7,0.8-3.1,2.2-4.3,4.3
				C123.8,7.8,123.4,8,123.1,8z M24.2,6.1h0.6c0-0.2,0-0.3,0-0.5C24.7,5.8,24.4,6,24.2,6.1z"/>
		</g>
		<g>
			<path class="st17" d="M46.9,94l-2.2-3.7c-0.3,0-0.6,0-0.9,0h-0.9V94h-1.8V84c0.9,0,1.8-0.1,2.8-0.1c2.4,0,4.4,0.5,4.4,3.1v0.1
				c0,1.5-0.7,2.3-1.7,2.8l2.4,4.1H46.9z M46.4,87.1c0-1.6-1.1-1.6-3.5-1.6v3.3c0.4,0,0.7,0,1,0C45.7,88.8,46.4,88.4,46.4,87.1
				L46.4,87.1z"/>
			<path class="st17" d="M51.7,90.8v0.1c0,1.1,0.2,1.8,2,1.8c0.8,0,1.7-0.1,2.7-0.2v1.3c-0.6,0.1-1.6,0.3-2.8,0.3
				c-2.7,0-3.7-1.1-3.7-3.7V90c0-2.6,1.2-3.8,3.4-3.8c2.5,0,3.4,1.6,3.4,4v0.6H51.7z M55,89.5c0-0.9-0.2-1.8-1.6-1.8
				c-1.4,0-1.6,1-1.6,1.8v0.1H55V89.5z"/>
			<path class="st17" d="M61.1,94.2c-1.1,0-2.3-0.2-2.6-0.3v-1.3c0.4,0,1.5,0.2,2.5,0.2c1.1,0,1.4-0.3,1.4-0.8
				c0-0.5-0.2-0.7-1.4-1.1l-0.6-0.2c-1.4-0.6-2.1-1.2-2.1-2.4c0-1.5,1-2.1,3-2.1c0.9,0,2,0.2,2.4,0.3v1.2c-0.9-0.1-1.7-0.1-2.3-0.1
				c-0.9,0-1.3,0.1-1.3,0.6c0,0.5,0.3,0.6,1.2,1l0.6,0.2c1.6,0.7,2.2,1.2,2.2,2.4C64.2,93.3,63.3,94.2,61.1,94.2z"/>
			<path class="st17" d="M66.1,85.2v-1.7h1.8v1.7H66.1z M66.1,94v-7.6h1.8V94H66.1z"/>
			<path class="st17" d="M74.9,94v-0.4c-0.5,0.3-1.2,0.6-2.1,0.6c-1.8,0-2.8-1.1-2.8-3.4v-1.1c0-2.7,1.3-3.5,3.3-3.5
				c0.6,0,1.1,0.1,1.6,0.1v-2.8h1.8V94H74.9z M74.8,87.8c-0.5-0.1-1.1-0.1-1.4-0.1c-1.1,0-1.7,0.3-1.7,2v1.1c0,1.4,0.4,1.9,1.6,1.9
				c0.6,0,1.1-0.1,1.5-0.3V87.8z"/>
			<path class="st17" d="M83.8,94v-0.6c-0.9,0.5-1.8,0.8-2.6,0.8c-2,0-2.3-1.4-2.3-3v-4.8h1.8v4.8c0,1.1,0.2,1.5,1.1,1.5
				c0.5,0,1.2-0.2,2-0.5v-5.8h1.8V94H83.8z"/>
			<path class="st17" d="M91,94.2c-2.2,0-3.4-1.1-3.4-3.5v-0.9c0-2.4,1.2-3.5,3.4-3.5c2.2,0,3.4,1.1,3.4,3.5v0.9
				C94.4,93.1,93.2,94.2,91,94.2z M92.6,89.7c0-1.5-0.5-2-1.7-2c-1.1,0-1.7,0.5-1.7,2v0.9c0,1.5,0.5,2,1.7,2c1.2,0,1.7-0.6,1.7-2
				V89.7z"/>
			<path class="st17" d="M98.7,94.2c-1.1,0-2.3-0.2-2.6-0.3v-1.3c0.4,0,1.5,0.2,2.5,0.2c1.1,0,1.4-0.3,1.4-0.8
				c0-0.5-0.2-0.7-1.4-1.1l-0.6-0.2c-1.4-0.6-2.1-1.2-2.1-2.4c0-1.5,1-2.1,3-2.1c0.9,0,2,0.2,2.4,0.3v1.2c-0.9-0.1-1.7-0.1-2.3-0.1
				c-0.9,0-1.3,0.1-1.3,0.6c0,0.5,0.3,0.6,1.2,1l0.6,0.2c1.6,0.7,2.2,1.2,2.2,2.4C101.8,93.3,100.9,94.2,98.7,94.2z"/>
			<path class="st17" d="M27.9,110.2l-0.9-2.8h-3.2l-0.9,2.8h-1.9l3-10h2.8l3,10H27.9z M25.8,103.1c-0.1-0.5-0.3-1-0.4-1.6h-0.1
				c-0.1,0.5-0.2,1.1-0.4,1.6l-0.9,2.8h2.5L25.8,103.1z"/>
			<path class="st17" d="M34.8,110.4c-0.5,0-1.1-0.1-1.5-0.2v2.8h-1.8v-10.4h1.7v0.5c0.7-0.5,1.5-0.7,2.2-0.7c1.7,0,2.7,1,2.7,3.6
				v0.7C38.1,109.5,36.7,110.4,34.8,110.4z M36.3,106c0-1.6-0.5-2.1-1.5-2.1c-0.5,0-0.9,0.1-1.6,0.4v4.4c0.5,0.1,1,0.1,1.4,0.1
				c1.1,0,1.7-0.4,1.7-2.2V106z"/>
			<path class="st17" d="M41.9,104.5v5.7h-1.8v-7.6h1.7v0.6c0.7-0.6,1.6-0.8,2.6-0.8v1.6C43.5,104,42.5,104.2,41.9,104.5z"/>
			<path class="st17" d="M48.9,110.4c-2.2,0-3.4-1.1-3.4-3.5v-0.9c0-2.4,1.2-3.5,3.4-3.5c2.2,0,3.4,1.1,3.4,3.5v0.9
				C52.3,109.3,51.1,110.4,48.9,110.4z M50.5,105.9c0-1.5-0.5-2-1.7-2c-1.1,0-1.7,0.5-1.7,2v0.9c0,1.5,0.5,2,1.7,2
				c1.2,0,1.7-0.6,1.7-2V105.9z"/>
			<path class="st17" d="M58.1,110.2h-2.5l-2.4-7.6h1.9l1.2,4.3c0.2,0.7,0.4,1.4,0.5,2.1c0.2-0.6,0.3-1.3,0.5-2.1l1.2-4.3h1.9
				L58.1,110.2z"/>
			<path class="st17" d="M63.1,107v0.1c0,1.1,0.2,1.8,2,1.8c0.8,0,1.7-0.1,2.7-0.2v1.3c-0.6,0.1-1.6,0.3-2.8,0.3
				c-2.7,0-3.7-1.1-3.7-3.7v-0.5c0-2.6,1.2-3.8,3.4-3.8c2.5,0,3.4,1.6,3.4,4v0.6H63.1z M66.5,105.7c0-0.9-0.2-1.8-1.6-1.8
				c-1.4,0-1.6,1-1.6,1.8v0.1h3.3V105.7z"/>
			<path class="st17" d="M73.1,110.4c-2.2,0-3.2-1.2-3.2-3.5v-1c0-2.3,1-3.5,3.2-3.5c1.2,0,2,0.2,2.3,0.3v1.4c-1-0.1-1.6-0.1-2-0.1
				c-1.1,0-1.7,0.4-1.7,2v1c0,1.6,0.6,2,1.7,2c0.4,0,1.1,0,2-0.1v1.4C75.1,110.2,74.3,110.4,73.1,110.4z"/>
			<path class="st17" d="M82.2,110.2v-4.8c0-1.2-0.3-1.5-1.2-1.5c-0.7,0-1.4,0.2-1.9,0.4v5.9h-1.8V99.7h1.8v3.3
				c0.5-0.3,1.4-0.6,2.4-0.6c1.9,0,2.5,1.1,2.5,3v4.8H82.2z"/>
			<path class="st17" d="M90.5,110.2v-0.5c-0.5,0.3-1.3,0.7-2.4,0.7c-1.4,0-2.2-0.7-2.2-2.2v-0.3c0-2,1.5-2.3,3.6-2.3h0.9v-0.5
				c0-1.1-0.2-1.3-1.6-1.3c-0.8,0-1.6,0.1-2.4,0.1v-1.2c0.3-0.1,1.5-0.4,2.7-0.4c2.4,0,3.1,0.8,3.1,2.8v5H90.5z M90.4,106.7h-0.9
				c-1.3,0-1.9,0.1-1.9,1.1v0.3c0,0.7,0.4,0.9,1.1,0.9c0.7,0,1.5-0.3,1.7-0.5V106.7z"/>
			<path class="st17" d="M97.4,110.4c-1,0-1.7-0.1-3.1-0.2V99.7h1.8v3.1c0.6-0.3,1.2-0.4,1.8-0.4c2.1,0,3.1,1.1,3.1,3.4v1.1
				C101,109.4,99.8,110.4,97.4,110.4z M99.2,105.8c0-1.4-0.4-1.9-1.5-1.9c-0.3,0-1.1,0.1-1.6,0.3v4.6c0.3,0,0.8,0.1,1.3,0.1
				c1.2,0,1.8-0.5,1.8-2.1V105.8z"/>
			<path class="st17" d="M103.1,110.2V99.7h1.8v10.5H103.1z"/>
			<path class="st17" d="M108.7,107v0.1c0,1.1,0.2,1.8,2,1.8c0.8,0,1.7-0.1,2.7-0.2v1.3c-0.6,0.1-1.6,0.3-2.8,0.3
				c-2.7,0-3.7-1.1-3.7-3.7v-0.5c0-2.6,1.2-3.8,3.4-3.8c2.5,0,3.4,1.6,3.4,4v0.6H108.7z M112,105.7c0-0.9-0.2-1.8-1.6-1.8
				c-1.4,0-1.6,1-1.6,1.8v0.1h3.3V105.7z"/>
			<path class="st17" d="M118.1,110.4c-1.1,0-2.3-0.2-2.6-0.3v-1.3c0.4,0,1.5,0.2,2.5,0.2c1.1,0,1.4-0.3,1.4-0.8
				c0-0.5-0.2-0.7-1.4-1.1l-0.6-0.2c-1.4-0.6-2.1-1.2-2.1-2.4c0-1.5,1-2.1,3-2.1c0.9,0,2,0.2,2.4,0.3v1.2c-0.9-0.1-1.7-0.1-2.3-0.1
				c-0.9,0-1.3,0.1-1.3,0.6c0,0.5,0.3,0.6,1.2,1l0.6,0.2c1.6,0.7,2.2,1.2,2.2,2.4C121.2,109.5,120.2,110.4,118.1,110.4z"/>
		</g>
		<g>
			<path class="st18" d="M85,188.8l-5.6,10.3l3.2-1.7l4.3,6.9c2.4,0,4.9-0.1,6.5-1c1.7-0.9,4.3-3.5,2.7-6.2l-3-5.8l3.2-2.5L85,188.8
				z"/>
			<path class="st18" d="M95.8,203.1c-2.1,2.4-4.9,2.8-7.1,2.7L75,205.9v12.1h7.3c2.7,0.1,5.3-0.4,6.7-2.1L95.8,203.1L95.8,203.1z"
				/>
			<path class="st18" d="M57.9,189.5l11.7-0.1l-3.1-2l4-7.1c-1.1-2.1-2.4-4.2-4-5.2c-1.6-1-5.1-2-6.7,0.6l-3.6,5.5l-3.8-1.6
				L57.9,189.5z"/>
			<path class="st18" d="M65.1,173.1c3.1,0.7,4.9,3,5.8,4.9l6.8,12l10.6-5.8l-3.5-6.4c-1.3-2.4-2.9-4.5-5.1-4.8L65.1,173.1
				L65.1,173.1z"/>
			<path class="st18" d="M70.5,212.7l-5.8-10.2l-0.2,3.6l-8.1-0.1c-1.3,2-2.5,4.2-2.6,6c-0.1,1.9,0.7,5.5,3.8,5.6l6.5,0.5l0.4,4.1
				L70.5,212.7z"/>
			<path class="st18" d="M52.7,214.4c-0.9-3.1,0.2-5.7,1.5-7.4l7.2-11.7l-10.2-6.4l-3.9,6.2c-1.5,2.3-2.5,4.7-1.8,6.8L52.7,214.4
				L52.7,214.4z"/>
		</g>
	</g>
</g>
<g>
</g>
<g>
</g>
<g>
</g>
<g>
</g>
<g>
</g>
<g>
</g>
</svg>
