<?xml version="1.0" encoding="utf-8"?>
<!-- Generator: Adobe Illustrator 24.0.0, SVG Export Plug-In . SVG Version: 6.00 Build 0)  -->
<svg version="1.1" id="Capa_1" xmlns="http://www.w3.org/2000/svg" xmlns:xlink="http://www.w3.org/1999/xlink" x="0px" y="0px"
	 viewBox="0 0 142.7 350.3" style="enable-background:new 0 0 142.7 350.3;" xml:space="preserve">
<style type="text/css">
	.st0{fill:url(#SVGID_1_);}
	.st1{fill:url(#SVGID_2_);}
	.st2{fill:#0F0F0F;}
	.st3{fill:#141414;}
	.st4{fill:url(#SVGID_3_);}
	.st5{fill:#242424;}
	.st6{fill:url(#SVGID_4_);}
	.st7{fill:#13131B;}
	.st8{fill:url(#SVGID_5_);}
	.st9{fill:#C7CBD4;}
	.st10{fill:url(#SVGID_6_);}
	.st11{fill:url(#SVGID_7_);}
	.st12{fill:#FFFFFF;}
</style>
<g>
	<linearGradient id="SVGID_1_" gradientUnits="userSpaceOnUse" x1="34.3882" y1="312.0991" x2="62.7504" y2="312.0991">
		<stop  offset="0" style="stop-color:#63882D"/>
		<stop  offset="1" style="stop-color:#4A6527"/>
	</linearGradient>
	<path class="st0" d="M37.5,349.5c-1.2-39.6,7.2-64.6,25.2-75c-19.8,8.1-29.2,33.1-28.3,75.1C35.5,349.6,36.5,349.6,37.5,349.5z"/>
	
		<linearGradient id="SVGID_2_" gradientUnits="userSpaceOnUse" x1="48.4195" y1="94.3568" x2="99.9213" y2="124.1113" gradientTransform="matrix(1 0 0 -1 0 426.6051)">
		<stop  offset="0" style="stop-color:#63882D"/>
		<stop  offset="1" style="stop-color:#4A6527"/>
	</linearGradient>
	<path class="st1" d="M78.7,274.8c-5.5-2.4-10.8-2.5-16-0.2c-18,10.4-26.4,35.4-25.2,75c0.2,0,0.5,0,0.7,0
		c21.8-1.3,43.4-1.1,64.8,0.7C103.9,311.7,95.8,286.6,78.7,274.8z"/>
	<path class="st2" d="M5.8,34.3v3.2v15.9c0.8-0.3,1.7-0.6,2.7-0.8l0.2-18.4C7.7,34.3,6.7,34.3,5.8,34.3z"/>
	<path class="st3" d="M4.6,31.5c-2.5,0-4,0.5-4.6,1.5l5.8,1.3c1,0,1.9,0,2.9,0c83-1.2,117.5-2,103.3-2.4L11.7,31.6L4.6,31.5z"/>
	
		<linearGradient id="SVGID_3_" gradientUnits="userSpaceOnUse" x1="0.8626" y1="398.6328" x2="12.6193" y2="410.3894" gradientTransform="matrix(1 0 0 -1 0 426.6051)">
		<stop  offset="0" style="stop-color:#4A6527"/>
		<stop  offset="1" style="stop-color:#63882D"/>
	</linearGradient>
	<path class="st4" d="M4.7,11.1c-2.8,0.6-4.4,2.6-4.7,6V33c0.6-1,2.2-1.5,4.6-1.5l7.1,0V18.8C10.9,14,8.6,11.4,4.7,11.1z"/>
	<path class="st5" d="M14.7,2.3c-0.1-0.3-0.2-0.5-0.3-0.7c-0.2-0.4-0.5-0.7-0.8-0.8c-0.3-0.1-0.6-0.1-1,0V8h2.1V2.3 M129.7,6.4
		l0.6-5.7c-0.5,1-1.3,1.7-2.7,2c0,0.2,0,0.5,0,0.7l-0.8,5.2C128.7,8.7,129.6,8,129.7,6.4z"/>
	
		<linearGradient id="SVGID_4_" gradientUnits="userSpaceOnUse" x1="10.0149" y1="225.2224" x2="134.2578" y2="225.2224" gradientTransform="matrix(1 0 0 -1 0 426.6051)">
		<stop  offset="0" style="stop-color:#4A6527"/>
		<stop  offset="8.235294e-02" style="stop-color:#7BA82B"/>
		<stop  offset="0.9451" style="stop-color:#7BA82B"/>
		<stop  offset="0.9922" style="stop-color:#A3C963"/>
	</linearGradient>
	<path class="st6" d="M137.3,57.3L137.3,57.3c-0.1-2.6-1.7-4.2-4.8-4.8l-117.8,1c-1.3,0-2.4,0.2-3.2,0.5C10,54.4,9,55.2,8.6,56.3
		l6.2,272.9h0l0.2,11.6l0,2.7c0.5,5,4.4,7.2,11.6,6.8c2.6-0.2,5.2-0.4,7.7-0.6c-0.9-42,8.5-67,28.3-75.1c5.2-2.2,10.5-2.1,16,0.2
		c17.1,11.8,25.2,37,24.3,75.4c0.5,0,1,0.1,1.6,0.1h11.9c6.1,0.2,9.1-2.3,9.2-7.5c0.1-1,0.1-2,0.2-3l0.1-2.3
		c0.2-3.3,0.3-6.6,0.5-9.9h0.2c5.5-84.7,9-173.9,10.5-267.5c0-0.7,0-1.4,0-2.2C137.3,57.6,137.3,57.5,137.3,57.3"/>
	<path class="st7" d="M137.7,53.7c0.4-1.1,0.9-1.9,1.7-2.4l-125.1,1c-2.3-0.1-4.3,0-5.9,0.3l0,1.3l0,2.4c0.5-1.1,1.4-1.9,2.8-2.4
		c0.9-0.3,2-0.5,3.2-0.5l117.8-1c3.2,0.7,4.8,2.3,4.8,4.7C137.3,55.8,137.4,54.6,137.7,53.7z"/>
	
		<linearGradient id="SVGID_5_" gradientUnits="userSpaceOnUse" x1="8.4667" y1="384.4973" x2="142.6852" y2="384.4973" gradientTransform="matrix(1 0 0 -1 0 426.6051)">
		<stop  offset="0" style="stop-color:#343434"/>
		<stop  offset="0.2157" style="stop-color:#323234"/>
		<stop  offset="0.8431" style="stop-color:#414244"/>
		<stop  offset="0.9922" style="stop-color:#555355"/>
	</linearGradient>
	<path class="st8" d="M142.7,31.6l-3.6,0L112,31.8c14.2,0.4-20.3,1.2-103.3,2.4L8.5,52.6c1.6-0.3,3.6-0.4,5.9-0.3l125.1-1h1.2
		c1.5-0.2,2.1-0.8,2-1.9V36.7V31.6z"/>
	<path class="st9" d="M115.7,2.4V0.8H20.6v1.6H115.7z"/>
	
		<linearGradient id="SVGID_6_" gradientUnits="userSpaceOnUse" x1="14.3692" y1="421.9537" x2="127.6296" y2="421.9537" gradientTransform="matrix(1 0 0 -1 0 426.6051)">
		<stop  offset="0" style="stop-color:#A3C963"/>
		<stop  offset="0.5059" style="stop-color:#A3C963"/>
		<stop  offset="0.9922" style="stop-color:#A3C963"/>
	</linearGradient>
	<path class="st10" d="M125.7,0.8h-10v1.6H20.6V0.8h-2.7c-2-0.1-3.2,0.2-3.5,0.8c0.1,0.2,0.2,0.4,0.3,0.7V8l112.1,0.5l0.8-5.2
		c0-0.3,0-0.5,0-0.7C127.5,1.5,126.8,0.9,125.7,0.8z"/>
	
		<linearGradient id="SVGID_7_" gradientUnits="userSpaceOnUse" x1="70.9272" y1="425.9599" x2="70.9272" y2="393.9316" gradientTransform="matrix(1 0 0 -1 0 426.6051)">
		<stop  offset="0" style="stop-color:#A3C963"/>
		<stop  offset="0.149" style="stop-color:#8EBD3E"/>
		<stop  offset="0.3412" style="stop-color:#A3C963"/>
		<stop  offset="0.5725" style="stop-color:#7BA82B"/>
		<stop  offset="0.8235" style="stop-color:#8EBD3E"/>
		<stop  offset="0.9765" style="stop-color:#7BA82B"/>
	</linearGradient>
	<path class="st11" d="M130.3,0.6l-0.6,5.7c-0.1,1.6-1,2.4-2.9,2.2L14.7,8h-2.1V0.8V0.1C5.3-0.6,1.1,4,0,14v3.1
		c0.3-3.5,1.9-5.5,4.7-6c3.9,0.3,6.2,2.9,7,7.7v12.7L112,31.8l27.1-0.1c1.9-0.2,2.8-1.3,2.8-3.4V10.8C140.8,2.4,137-1,130.3,0.6z"/>
	<g>
		<g>
			<path class="st12" d="M48.9,89.5l-2.2-3.7c-0.3,0-0.6,0-0.9,0h-0.9v3.7H43v-10c0.9,0,1.8-0.1,2.8-0.1c2.4,0,4.4,0.5,4.4,3.1v0.1
				c0,1.5-0.7,2.3-1.7,2.8l2.4,4.1H48.9z M48.4,82.6c0-1.6-1.1-1.6-3.5-1.6v3.3c0.4,0,0.7,0,1,0C47.6,84.3,48.4,83.9,48.4,82.6
				L48.4,82.6z"/>
			<path class="st12" d="M53.7,86.3v0.1c0,1.1,0.2,1.8,2,1.8c0.8,0,1.7-0.1,2.7-0.2v1.3c-0.6,0.1-1.6,0.3-2.8,0.3
				c-2.7,0-3.7-1.1-3.7-3.7v-0.5c0-2.6,1.2-3.8,3.4-3.8c2.5,0,3.4,1.6,3.4,4v0.6H53.7z M57,85c0-0.9-0.2-1.8-1.6-1.8
				c-1.4,0-1.6,1-1.6,1.8v0.1H57V85z"/>
			<path class="st12" d="M63.1,89.7c-1.1,0-2.3-0.2-2.6-0.3v-1.3c0.4,0,1.5,0.2,2.5,0.2c1.1,0,1.4-0.3,1.4-0.8
				c0-0.5-0.2-0.7-1.4-1.1l-0.6-0.2c-1.4-0.6-2.1-1.2-2.1-2.4c0-1.5,1-2.1,3-2.1c0.9,0,2,0.2,2.4,0.3v1.2c-0.9-0.1-1.7-0.1-2.3-0.1
				c-0.9,0-1.3,0.1-1.3,0.6c0,0.5,0.3,0.6,1.2,1L64,85c1.6,0.7,2.2,1.2,2.2,2.4C66.2,88.8,65.2,89.7,63.1,89.7z"/>
			<path class="st12" d="M68.1,80.7V79h1.8v1.7H68.1z M68.1,89.5v-7.6h1.8v7.6H68.1z"/>
			<path class="st12" d="M76.9,89.5v-0.4c-0.5,0.3-1.2,0.6-2.1,0.6c-1.8,0-2.8-1.1-2.8-3.4v-1.1c0-2.7,1.3-3.5,3.3-3.5
				c0.6,0,1.1,0.1,1.6,0.1V79h1.8v10.5H76.9z M76.8,83.3c-0.5-0.1-1.1-0.1-1.4-0.1c-1.1,0-1.7,0.3-1.7,2v1.1c0,1.4,0.4,1.9,1.6,1.9
				c0.6,0,1.1-0.1,1.5-0.3V83.3z"/>
			<path class="st12" d="M85.8,89.5v-0.6c-0.9,0.5-1.8,0.8-2.6,0.8c-2,0-2.3-1.4-2.3-3v-4.8h1.8v4.8c0,1.1,0.2,1.5,1.1,1.5
				c0.5,0,1.2-0.2,2-0.5v-5.8h1.8v7.6H85.8z"/>
			<path class="st12" d="M92.9,89.7c-2.2,0-3.4-1.1-3.4-3.5v-0.9c0-2.4,1.2-3.5,3.4-3.5c2.2,0,3.4,1.1,3.4,3.5v0.9
				C96.4,88.6,95.1,89.7,92.9,89.7z M94.6,85.2c0-1.5-0.5-2-1.7-2c-1.1,0-1.7,0.5-1.7,2v0.9c0,1.5,0.5,2,1.7,2c1.2,0,1.7-0.6,1.7-2
				V85.2z"/>
			<path class="st12" d="M100.7,89.7c-1.1,0-2.3-0.2-2.6-0.3v-1.3c0.4,0,1.5,0.2,2.5,0.2c1.1,0,1.4-0.3,1.4-0.8
				c0-0.5-0.2-0.7-1.4-1.1l-0.6-0.2C98.7,85.6,98,85,98,83.8c0-1.5,1-2.1,3-2.1c0.9,0,2,0.2,2.4,0.3v1.2c-0.9-0.1-1.7-0.1-2.3-0.1
				c-0.9,0-1.3,0.1-1.3,0.6c0,0.5,0.3,0.6,1.2,1l0.6,0.2c1.6,0.7,2.2,1.2,2.2,2.4C103.8,88.8,102.8,89.7,100.7,89.7z"/>
			<path class="st12" d="M44,105.9c-2.2,0-3.4-1.1-3.4-3.5v-0.9c0-2.4,1.2-3.5,3.4-3.5c2.2,0,3.4,1.1,3.4,3.5v0.9
				C47.4,104.8,46.2,105.9,44,105.9z M45.7,101.4c0-1.5-0.5-2-1.7-2c-1.1,0-1.7,0.5-1.7,2v0.9c0,1.5,0.5,2,1.7,2
				c1.2,0,1.7-0.6,1.7-2V101.4z"/>
			<path class="st12" d="M51.2,100v5.7h-1.8v-7.6h1.7v0.6c0.7-0.6,1.6-0.8,2.6-0.8v1.6C52.8,99.6,51.8,99.7,51.2,100z"/>
			<path class="st12" d="M58.2,108.7c-1.3,0-2.7-0.2-3-0.3v-1.2c0.9,0.1,1.9,0.1,2.9,0.1c1.4,0,1.6-0.4,1.6-1.3v-0.3
				c-0.2,0-0.9,0.1-1.4,0.1c-2.2,0-3.5-1-3.5-3.5v-0.9c0-2.4,1.1-3.5,3.7-3.5c1,0,2.1,0.1,2.9,0.2v7.9
				C61.4,107.6,60.8,108.7,58.2,108.7z M59.6,99.5c-0.1,0-0.7-0.1-1.2-0.1c-1.5,0-1.8,0.6-1.8,2.1v0.8c0,1.5,0.5,2,1.8,2
				c0.5,0,1.1-0.1,1.3-0.1V99.5z"/>
			<path class="st12" d="M68,105.7v-0.5c-0.5,0.3-1.3,0.7-2.4,0.7c-1.4,0-2.2-0.7-2.2-2.2v-0.3c0-2,1.5-2.3,3.6-2.3h0.9v-0.5
				c0-1.1-0.2-1.3-1.6-1.3c-0.8,0-1.6,0.1-2.4,0.1v-1.2c0.3-0.1,1.5-0.4,2.7-0.4c2.4,0,3.1,0.8,3.1,2.8v5H68z M67.9,102.3H67
				c-1.3,0-1.9,0.1-1.9,1.1v0.3c0,0.7,0.4,0.9,1.1,0.9c0.7,0,1.5-0.3,1.7-0.5V102.3z"/>
			<path class="st12" d="M76.7,105.7v-4.8c0-1.1-0.2-1.5-1.1-1.5c-0.5,0-1.2,0.2-2,0.5v5.8h-1.8v-7.6h1.7v0.6
				c0.8-0.5,1.6-0.8,2.5-0.8c2.1,0,2.4,1.2,2.4,3v4.8H76.7z"/>
			<path class="st12" d="M80.8,96.9v-1.7h1.8v1.7H80.8z M80.8,105.7v-7.6h1.8v7.6H80.8z"/>
			<path class="st12" d="M87.9,105.9c-2.2,0-3.2-1.2-3.2-3.5v-1c0-2.3,1-3.5,3.2-3.5c1.2,0,2,0.2,2.4,0.3v1.4c-1-0.1-1.6-0.1-2-0.1
				c-1.1,0-1.7,0.4-1.7,2v1c0,1.6,0.6,2,1.7,2c0.4,0,1.1,0,2-0.1v1.4C89.9,105.7,89,105.9,87.9,105.9z"/>
			<path class="st12" d="M95,105.9c-2.2,0-3.4-1.1-3.4-3.5v-0.9c0-2.4,1.2-3.5,3.4-3.5c2.2,0,3.4,1.1,3.4,3.5v0.9
				C98.4,104.8,97.2,105.9,95,105.9z M96.7,101.4c0-1.5-0.5-2-1.7-2c-1.1,0-1.7,0.5-1.7,2v0.9c0,1.5,0.5,2,1.7,2
				c1.2,0,1.7-0.6,1.7-2V101.4z"/>
			<path class="st12" d="M102.8,105.9c-1.1,0-2.3-0.2-2.6-0.3v-1.3c0.4,0,1.5,0.2,2.5,0.2c1.1,0,1.4-0.3,1.4-0.8
				c0-0.5-0.2-0.7-1.4-1.1l-0.6-0.2c-1.4-0.6-2.1-1.2-2.1-2.4c0-1.5,1-2.1,3-2.1c0.9,0,2,0.2,2.4,0.3v1.2c-0.9-0.1-1.7-0.1-2.3-0.1
				c-0.9,0-1.3,0.1-1.3,0.6c0,0.5,0.3,0.6,1.2,1l0.6,0.2c1.6,0.7,2.2,1.2,2.2,2.4C105.9,105,104.9,105.9,102.8,105.9z"/>
			<path class="st12" d="M28.7,121.9v-0.5c-0.5,0.3-1.3,0.7-2.4,0.7c-1.4,0-2.2-0.7-2.2-2.2v-0.3c0-2,1.5-2.3,3.6-2.3h0.9v-0.5
				c0-1.1-0.2-1.3-1.6-1.3c-0.8,0-1.6,0.1-2.4,0.1v-1.2c0.3-0.1,1.5-0.4,2.7-0.4c2.4,0,3.1,0.8,3.1,2.8v5H28.7z M28.6,118.5h-0.9
				c-1.3,0-1.9,0.1-1.9,1.1v0.3c0,0.7,0.4,0.9,1.1,0.9c0.7,0,1.5-0.3,1.7-0.5V118.5z"/>
			<path class="st12" d="M35.9,122.1c-0.5,0-1.1-0.1-1.5-0.2v2.8h-1.8v-10.4h1.7v0.5c0.7-0.5,1.5-0.7,2.2-0.7c1.7,0,2.7,1,2.7,3.6
				v0.7C39.2,121.2,37.8,122.1,35.9,122.1z M37.4,117.7c0-1.6-0.5-2.1-1.5-2.1c-0.5,0-0.9,0.1-1.6,0.4v4.4c0.5,0.1,1,0.1,1.4,0.1
				c1.1,0,1.7-0.4,1.7-2.2V117.7z"/>
			<path class="st12" d="M43,116.2v5.7h-1.8v-7.6h1.7v0.6c0.7-0.6,1.6-0.8,2.6-0.8v1.6C44.6,115.8,43.6,115.9,43,116.2z"/>
			<path class="st12" d="M50,122.1c-2.2,0-3.4-1.1-3.4-3.5v-0.9c0-2.4,1.2-3.5,3.4-3.5c2.2,0,3.4,1.1,3.4,3.5v0.9
				C53.4,121,52.2,122.1,50,122.1z M51.6,117.6c0-1.5-0.5-2-1.7-2c-1.1,0-1.7,0.5-1.7,2v0.9c0,1.5,0.5,2,1.7,2c1.2,0,1.7-0.6,1.7-2
				V117.6z"/>
			<path class="st12" d="M59.2,121.9h-2.5l-2.4-7.6h1.9l1.2,4.3c0.2,0.7,0.4,1.4,0.5,2.1c0.2-0.6,0.3-1.3,0.5-2.1l1.2-4.3h1.9
				L59.2,121.9z"/>
			<path class="st12" d="M64.3,118.7v0.1c0,1.1,0.2,1.8,2,1.8c0.8,0,1.7-0.1,2.7-0.2v1.3c-0.6,0.1-1.6,0.3-2.8,0.3
				c-2.7,0-3.7-1.1-3.7-3.7v-0.5c0-2.6,1.2-3.8,3.4-3.8c2.5,0,3.4,1.6,3.4,4v0.6H64.3z M67.6,117.4c0-0.9-0.2-1.8-1.6-1.8
				c-1.4,0-1.6,1-1.6,1.8v0.1h3.3V117.4z"/>
			<path class="st12" d="M74.2,122.1c-2.2,0-3.2-1.2-3.2-3.5v-1c0-2.3,1-3.5,3.2-3.5c1.2,0,2,0.2,2.3,0.3v1.4c-1-0.1-1.6-0.1-2-0.1
				c-1.1,0-1.7,0.4-1.7,2v1c0,1.6,0.6,2,1.7,2c0.4,0,1.1,0,2-0.1v1.4C76.2,121.9,75.4,122.1,74.2,122.1z"/>
			<path class="st12" d="M83.3,121.9v-4.8c0-1.2-0.3-1.5-1.2-1.5c-0.7,0-1.4,0.2-1.9,0.4v5.9h-1.8v-10.5h1.8v3.3
				c0.5-0.3,1.4-0.6,2.4-0.6c1.9,0,2.5,1.1,2.5,3v4.8H83.3z"/>
			<path class="st12" d="M91.6,121.9v-0.5c-0.5,0.3-1.3,0.7-2.4,0.7c-1.4,0-2.2-0.7-2.2-2.2v-0.3c0-2,1.5-2.3,3.6-2.3h0.9v-0.5
				c0-1.1-0.2-1.3-1.6-1.3c-0.8,0-1.6,0.1-2.4,0.1v-1.2c0.3-0.1,1.5-0.4,2.7-0.4c2.4,0,3.1,0.8,3.1,2.8v5H91.6z M91.5,118.5h-0.9
				c-1.3,0-1.9,0.1-1.9,1.1v0.3c0,0.7,0.4,0.9,1.1,0.9c0.7,0,1.5-0.3,1.7-0.5V118.5z"/>
			<path class="st12" d="M98.5,122.1c-1,0-1.7-0.1-3.1-0.2v-10.5h1.8v3.1c0.6-0.3,1.2-0.4,1.8-0.4c2.1,0,3.1,1.1,3.1,3.4v1.1
				C102.1,121.1,100.9,122.1,98.5,122.1z M100.3,117.5c0-1.4-0.4-1.9-1.5-1.9c-0.3,0-1.1,0.1-1.6,0.3v4.6c0.3,0,0.8,0.1,1.3,0.1
				c1.2,0,1.8-0.5,1.8-2.1V117.5z"/>
			<path class="st12" d="M104.2,121.9v-10.5h1.8v10.5H104.2z"/>
			<path class="st12" d="M109.8,118.7v0.1c0,1.1,0.2,1.8,2,1.8c0.8,0,1.7-0.1,2.7-0.2v1.3c-0.6,0.1-1.6,0.3-2.8,0.3
				c-2.7,0-3.7-1.1-3.7-3.7v-0.5c0-2.6,1.2-3.8,3.4-3.8c2.5,0,3.4,1.6,3.4,4v0.6H109.8z M113.1,117.4c0-0.9-0.2-1.8-1.6-1.8
				c-1.4,0-1.6,1-1.6,1.8v0.1h3.3V117.4z"/>
			<path class="st12" d="M119.2,122.1c-1.1,0-2.3-0.2-2.6-0.3v-1.3c0.4,0,1.5,0.2,2.5,0.2c1.1,0,1.4-0.3,1.4-0.8
				c0-0.5-0.2-0.7-1.4-1.1l-0.6-0.2c-1.4-0.6-2.1-1.2-2.1-2.4c0-1.5,1-2.1,3-2.1c0.9,0,2,0.2,2.4,0.3v1.2c-0.9-0.1-1.7-0.1-2.3-0.1
				c-0.9,0-1.3,0.1-1.3,0.6c0,0.5,0.3,0.6,1.2,1l0.6,0.2c1.6,0.7,2.2,1.2,2.2,2.4C122.3,121.2,121.3,122.1,119.2,122.1z"/>
		</g>
	</g>
	<g>
		<path class="st12" d="M81.3,199.8v-1.7c0-1.3-1-2.3-2.2-2.5c-0.2,0.9-0.3,1.9-0.3,2.9c0,1.3,0.2,2.5,0.5,3.7
			C80.4,202,81.3,201,81.3,199.8z"/>
		<path class="st12" d="M67.1,198.5c0-1-0.1-1.9-0.3-2.9c-1.2,0.2-2.2,1.2-2.2,2.5v1.7c0,1.2,0.8,2.2,2,2.4
			C66.9,201.1,67.1,199.8,67.1,198.5z"/>
		<path class="st12" d="M60.8,181.1c0.9-0.3,1.8-0.5,2.8-0.5c0.7,0,1.5,0.1,2.2,0.3l2.5,0.7c0.6,0.2,1.2,0.3,1.8,0.4l-0.3-2.9
			c-1.2-2.6-3.9-4.4-6.8-4.4h-7.5C55.8,177.8,57.9,180.3,60.8,181.1z"/>
		<path class="st12" d="M90.3,189.6c-0.5-1.6-1.3-2.5-2-3.5c-0.3-0.4-0.6-0.7-0.8-1.1c-1.2-1.7-3.1-2.7-5.2-2.7
			c-0.6,0-1.2,0.1-1.7,0.2l-2.5,0.7c-0.8,0.2-1.6,0.4-2.4,0.5L74,184l1.4-15.1h-5l1.4,15l-1.7-0.3c-0.8-0.1-1.6-0.3-2.4-0.5
			l-2.5-0.7c-0.6-0.2-1.2-0.2-1.7-0.2c-2.1,0-4,1-5.2,2.7c-0.3,0.4-0.5,0.7-0.8,1.1c-0.7,1-1.5,1.9-2,3.5c-0.1,0.2-0.1,0.4-0.1,0.6
			c0,1,0.8,1.9,1.8,2c0.4,0,0.8,0.1,1.3,0.1c1.5,0,2.2-0.6,3-1.4c1-0.9,2-1.9,4.2-1.9c0.7,0.8,0.7,1.3,0.9,1.8l0.2,0.4
			c1.3,2.3,1.9,4.8,1.9,7.4c0,2.5-0.6,5-1.9,7.2c-0.5,0.8-0.6,1.1-1.2,1.5c-1.5,0-2.2,0.6-3,1.4c-1,0.9-2,1.9-4.2,1.9
			c-0.2,0-0.4,0-0.6,0l-0.7,0c1.8,2.8,4.2,4.7,6,5.8c1.7,1.1,4,1.2,5.8,0.3l0.4-0.2c1.1-0.5,2.3-0.8,3.5-0.8c1.2,0,2.4,0.3,3.5,0.8
			l0.4,0.2c1.8,0.9,4.1,0.8,5.8-0.3c1.7-1.1,4.1-3,6-5.8l-0.7,0c-0.2,0-0.4,0-0.6,0c-2.1,0-3.2-1-4.2-1.9c-0.9-0.8-1.6-1.4-3.1-1.4
			c-0.5-0.5-0.8-0.9-1.2-1.5c-1.2-2.2-1.9-4.7-1.9-7.2c0-2.6,0.7-5.1,1.9-7.4c0,0,0.4-1.2,1.1-2.2c2.1,0,3.2,1,4.2,1.9
			c0.9,0.8,1.6,1.4,3.1,1.4c0.5,0,0.9,0,1.3-0.1c1-0.1,1.8-1,1.8-2C90.4,190,90.4,189.8,90.3,189.6z"/>
	</g>
</g>
<g>
</g>
<g>
</g>
<g>
</g>
<g>
</g>
<g>
</g>
<g>
</g>
</svg>
