<?xml version="1.0" encoding="utf-8"?>
<!-- Generator: Adobe Illustrator 24.0.0, SVG Export Plug-In . SVG Version: 6.00 Build 0)  -->
<svg version="1.1" id="Capa_1" xmlns="http://www.w3.org/2000/svg" xmlns:xlink="http://www.w3.org/1999/xlink" x="0px" y="0px"
	 viewBox="0 0 153.5 356.1" style="enable-background:new 0 0 153.5 356.1;" xml:space="preserve">
<style type="text/css">
	.st0{fill:url(#SVGID_1_);}
	.st1{fill:url(#SVGID_2_);}
	.st2{fill:url(#SVGID_3_);}
	.st3{fill:url(#SVGID_4_);}
	.st4{fill:url(#SVGID_5_);}
	.st5{fill:url(#SVGID_6_);}
	.st6{fill:url(#SVGID_7_);}
	.st7{fill:url(#SVGID_8_);}
	.st8{fill:#271E1C;}
	.st9{fill:#020203;}
	.st10{fill:url(#SVGID_9_);}
	.st11{fill:url(#SVGID_10_);}
	.st12{fill:url(#SVGID_11_);}
	.st13{fill:#1B1B1B;}
	.st14{fill:url(#SVGID_12_);}
	.st15{fill:url(#SVGID_13_);}
	.st16{fill:#FFFFFF;}
</style>
<g>
	
		<linearGradient id="SVGID_1_" gradientUnits="userSpaceOnUse" x1="761.666" y1="97.0683" x2="822.8237" y2="124.6029" gradientTransform="matrix(-1 0 0 -1 869.5032 432.3815)">
		<stop  offset="0" style="stop-color:#1B1B1B"/>
		<stop  offset="1" style="stop-color:#020203"/>
	</linearGradient>
	<path class="st0" d="M55.5,300.8c6.6-15.1,14.9-23.2,24.8-24.3c12.6,1,21.6,9.5,27,25.6c3.8,14.6,6,32.5,6.6,53.7h-1.3
		c-0.1,0-0.2,0-0.3,0c-1.4-0.2-2.9-0.4-4.4-0.5c-17.2-1.7-37.6-1.5-61.1,0.6C47,330.9,49.9,312.5,55.5,300.8z"/>
	<linearGradient id="SVGID_2_" gradientUnits="userSpaceOnUse" x1="-16.6625" y1="212.122" x2="30.3465" y2="212.122">
		<stop  offset="0" style="stop-color:#020203"/>
		<stop  offset="1" style="stop-color:#1B1B1B"/>
	</linearGradient>
	<path class="st1" d="M19.3,76.9c4.6-8.3,7.3-10.6,8.3-7.1l2.7,286.3c-2.5,0.1-4.4-0.2-5.7-0.9c-1.7-3.3-2.6-7.4-2.6-12.5L19.3,76.9
		z"/>
	
		<linearGradient id="SVGID_3_" gradientUnits="userSpaceOnUse" x1="848.1559" y1="225.0408" x2="862.4532" y2="225.0408" gradientTransform="matrix(-1 0 0 -1 869.5032 432.3815)">
		<stop  offset="0.2118" style="stop-color:#020203"/>
		<stop  offset="1" style="stop-color:#1B1B1B"/>
	</linearGradient>
	<path class="st2" d="M19.2,67.4l0.1,9.4L22,342.6c0,5.1,0.8,9.2,2.6,12.5c-0.8-0.4-1.3-1-1.6-1.8c-1.3-2.1-2.4-4.2-3.4-6.3
		c-1.9-4.1-3.4-8.3-4.7-12.5h-1c-0.9-2.8-1.7-5.6-2.3-8.5c-3.3-26.2-4.9-52.3-4.7-78.5V59.9C11,58.5,15.1,61,19.2,67.4z"/>
	
		<linearGradient id="SVGID_4_" gradientUnits="userSpaceOnUse" x1="850.2512" y1="372.6042" x2="862.6257" y2="372.6042" gradientTransform="matrix(-1 0 0 -1 869.5032 432.3815)">
		<stop  offset="9.019607e-02" style="stop-color:#1B1B1B"/>
		<stop  offset="0.8235" style="stop-color:#131418"/>
	</linearGradient>
	<path class="st3" d="M16.2,52.1h2.9l0.1,15.3C15.1,61,11,58.5,6.9,59.9v-6.2L16.2,52.1z"/>
	
		<linearGradient id="SVGID_5_" gradientUnits="userSpaceOnUse" x1="853.3325" y1="388.3065" x2="869.5032" y2="388.3065" gradientTransform="matrix(-1 0 0 -1 869.5032 432.3815)">
		<stop  offset="0" style="stop-color:#0F0F0F"/>
		<stop  offset="1" style="stop-color:#0C0C0D"/>
	</linearGradient>
	<path class="st4" d="M0,37.2l0-1.3l11.8-2.7h4.3v18.9l-9.3,1.7L0,55l0-1L0,37.2z"/>
	
		<linearGradient id="SVGID_6_" gradientUnits="userSpaceOnUse" x1="790.2496" y1="383.1931" x2="790.496" y2="75.5307" gradientTransform="matrix(-1 0 0 -1 869.5032 432.3815)">
		<stop  offset="0" style="stop-color:#020203"/>
		<stop  offset="5.882353e-02" style="stop-color:#1B1B1B"/>
		<stop  offset="0.9216" style="stop-color:#1B1B1B"/>
		<stop  offset="1" style="stop-color:#343434"/>
	</linearGradient>
	<path class="st5" d="M139.4,52.3l-3.9,77.2l-0.6,75.6l-7.5,150.9h-13.4c-0.6-21.2-2.8-39.1-6.6-53.7c-5.4-16.1-14.4-24.7-27-25.6
		c-9.9,1.2-18.2,9.3-24.8,24.3c-5.6,11.7-8.5,30.1-8.7,55.2H30.3L27.6,69.8c-1-3.5-3.7-1.2-8.3,7.1l-0.1-9.4l-0.1-15.3L139.4,52.3z"
		/>
	
		<linearGradient id="SVGID_7_" gradientUnits="userSpaceOnUse" x1="727.9859" y1="228.14" x2="735.6276" y2="228.4604" gradientTransform="matrix(-1 0 0 -1 869.5032 432.3815)">
		<stop  offset="0" style="stop-color:#020203"/>
		<stop  offset="0.7882" style="stop-color:#1B1B1B"/>
	</linearGradient>
	<path class="st6" d="M139.4,52.3h8.6l-14.4,295.2c0.4,5.9-1.7,8.7-6.3,8.5l7.5-150.9l0.6-75.6L139.4,52.3z"/>
	
		<linearGradient id="SVGID_8_" gradientUnits="userSpaceOnUse" x1="718.741" y1="389.6623" x2="853.3325" y2="389.6623" gradientTransform="matrix(-1 0 0 -1 869.5032 432.3815)">
		<stop  offset="0" style="stop-color:#383938"/>
		<stop  offset="0.9255" style="stop-color:#3A3A3C"/>
		<stop  offset="0.9765" style="stop-color:#4E5254"/>
	</linearGradient>
	<path class="st7" d="M150.8,33.2v19.1h-2.7h-8.6L19.1,52.1h-2.9V33.2H150.8z"/>
	<path class="st8" d="M150.8,33.2h2.7v19.1h-2.7V33.2z"/>
	<path class="st9" d="M139,9.7h-1.9c-1.5-3.9-4.4-6.4-8.8-7.2C132.7,2.4,136.3,4.8,139,9.7z"/>
	
		<linearGradient id="SVGID_9_" gradientUnits="userSpaceOnUse" x1="716.0294" y1="406.7204" x2="858.7556" y2="406.7204" gradientTransform="matrix(-1 0 0 -1 869.5032 432.3815)">
		<stop  offset="0" style="stop-color:#020203"/>
		<stop  offset="0.1974" style="stop-color:#1B1B1B"/>
	</linearGradient>
	<path class="st10" d="M10.7,18.2l73.2,0l69.5,0v15h-2.7H16.2h-4.3C12.4,27.5,12.1,22.5,10.7,18.2z"/>
	
		<linearGradient id="SVGID_10_" gradientUnits="userSpaceOnUse" x1="859.5567" y1="414.9413" x2="868.1351" y2="406.363" gradientTransform="matrix(-1 0 0 -1 869.5032 432.3815)">
		<stop  offset="0.2118" style="stop-color:#1B1B1B"/>
		<stop  offset="1" style="stop-color:#020203"/>
	</linearGradient>
	<path class="st11" d="M0.9,8.8c1.8-1,4-0.2,6.4,2.5c1.5,2,2.7,4.4,3.5,7c1.3,4.2,1.7,9.2,1.1,14.9L0,35.9l0-22.5
		C0.2,11.7,0.5,10.2,0.9,8.8z"/>
	
		<linearGradient id="SVGID_11_" gradientUnits="userSpaceOnUse" x1="790.8436" y1="430.2616" x2="790.8436" y2="426.2189" gradientTransform="matrix(-1 0 0 -1 869.5032 432.3815)">
		<stop  offset="0" style="stop-color:#1B1B1B"/>
		<stop  offset="0.5059" style="stop-color:#1B1B1B"/>
		<stop  offset="0.9922" style="stop-color:#1B1B1B"/>
	</linearGradient>
	<path class="st12" d="M31.7,5.9h96c-1.4-1.4-3.3-2.6-5.6-3.5h-3.4l-91-0.1C29.5,3.2,30.8,4.4,31.7,5.9 M131.7,7.1
		c-1.7-1.9-4.3-3.4-7.6-4.6h-2c2.4,0.9,4.2,2,5.6,3.5h-96c-0.9-1.5-2.2-2.7-3.9-3.6h-2.1c1.8,0.9,3.4,2.4,4.7,4.7H131.7z"/>
	<path class="st13" d="M25.6,2.3c1.8,0.9,3.4,2.4,4.7,4.7h101.3c-1.7-1.9-4.3-3.4-7.6-4.6h4.2c4.4,0.9,7.3,3.3,8.8,7.2H84.4H24.6
		L20,4.3c-0.6-0.8-1.2-1.5-1.9-2L25.6,2.3z"/>
	
		<linearGradient id="SVGID_12_" gradientUnits="userSpaceOnUse" x1="739.266" y1="438.0214" x2="747.9676" y2="422.9846" gradientTransform="matrix(-1 0 0 -1 869.5032 432.3815)">
		<stop  offset="0" style="stop-color:#020203"/>
		<stop  offset="0.7909" style="stop-color:#1B1B1B"/>
	</linearGradient>
	<path class="st14" d="M84,18.2l0.4-8.5h52.8h1.9c-2.7-4.9-6.3-7.3-10.7-7.2c2.4-2.1,5.3-2.8,8.8-2.1c9.7,2.5,15.2,8.4,16.4,17.7
		L84,18.2z"/>
	
		<linearGradient id="SVGID_13_" gradientUnits="userSpaceOnUse" x1="856.6107" y1="406.3898" x2="835.2634" y2="417.0388" gradientTransform="matrix(-1 0 0 -1 869.5032 432.3815)">
		<stop  offset="0" style="stop-color:#020203"/>
		<stop  offset="0.7882" style="stop-color:#1B1B1B"/>
	</linearGradient>
	<path class="st15" d="M84.4,9.7L84,18.2l-73.2,0c-0.8-2.6-1.9-4.9-3.5-7C4.9,8.6,2.8,7.8,0.9,8.8C2.7,3.4,6.3,0.5,11.8,0
		c2.5,0.1,4.6,0.8,6.3,2.3c0.7,0.6,1.3,1.2,1.9,2l4.5,5.4H84.4z"/>
	<path class="st9" d="M29.6,7.5c-1.2-2.1-2.7-3.6-4.3-4.3c-0.5-0.2-0.7-0.8-0.5-1.2C25,1.5,25.6,1.3,26,1.5c0.3,0.1,0.6,0.3,0.9,0.5
		c0,0,0,0,0,0c0.2-0.5,0.8-0.6,1.3-0.4c1.7,0.8,3.1,2,4,3.5h92.9c-1-0.6-2.1-1.2-3.3-1.6c-0.5-0.2-0.7-0.7-0.6-1.2
		c0.2-0.5,0.7-0.7,1.2-0.6c0.3,0.1,0.6,0.2,0.9,0.4c0.2-0.3,0.7-0.5,1.1-0.4c3.5,1.2,6.1,2.8,8,4.8c0.3,0.3,0.3,0.7,0.2,1
		c-0.1,0.3-0.5,0.6-0.9,0.6H30.4C30,8,29.7,7.8,29.6,7.5z"/>
	<g>
		<g>
			<path class="st16" d="M47.8,94l-2.2-3.7c-0.3,0-0.6,0-0.9,0h-0.9V94H42V84c0.9,0,1.8-0.1,2.8-0.1c2.4,0,4.4,0.5,4.4,3.1v0.1
				c0,1.5-0.7,2.3-1.7,2.8l2.4,4.1H47.8z M47.4,87.1c0-1.6-1.1-1.6-3.5-1.6v3.3c0.4,0,0.7,0,1,0C46.6,88.8,47.4,88.4,47.4,87.1
				L47.4,87.1z"/>
			<path class="st16" d="M52.6,90.8v0.1c0,1.1,0.2,1.8,2,1.8c0.8,0,1.7-0.1,2.7-0.2v1.3c-0.6,0.1-1.6,0.3-2.8,0.3
				c-2.7,0-3.7-1.1-3.7-3.7V90c0-2.6,1.2-3.8,3.4-3.8c2.5,0,3.4,1.6,3.4,4v0.6H52.6z M56,89.5c0-0.9-0.2-1.8-1.6-1.8
				c-1.4,0-1.6,1-1.6,1.8v0.1H56V89.5z"/>
			<path class="st16" d="M62.1,94.2c-1.1,0-2.3-0.2-2.6-0.3v-1.3c0.4,0,1.5,0.2,2.5,0.2c1.1,0,1.4-0.3,1.4-0.8
				c0-0.5-0.2-0.7-1.4-1.1l-0.6-0.2c-1.4-0.6-2.1-1.2-2.1-2.4c0-1.5,1-2.1,3-2.1c0.9,0,2,0.2,2.4,0.3v1.2c-0.9-0.1-1.7-0.1-2.3-0.1
				c-0.9,0-1.3,0.1-1.3,0.6c0,0.5,0.3,0.6,1.2,1l0.6,0.2c1.6,0.7,2.2,1.2,2.2,2.4C65.1,93.3,64.2,94.2,62.1,94.2z"/>
			<path class="st16" d="M67,85.2v-1.7h1.8v1.7H67z M67,94v-7.6h1.8V94H67z"/>
			<path class="st16" d="M75.9,94v-0.4c-0.5,0.3-1.2,0.6-2.1,0.6c-1.8,0-2.8-1.1-2.8-3.4v-1.1c0-2.7,1.3-3.5,3.3-3.5
				c0.6,0,1.1,0.1,1.6,0.1v-2.8h1.8V94H75.9z M75.8,87.8c-0.5-0.1-1.1-0.1-1.4-0.1c-1.1,0-1.7,0.3-1.7,2v1.1c0,1.4,0.4,1.9,1.6,1.9
				c0.6,0,1.1-0.1,1.5-0.3V87.8z"/>
			<path class="st16" d="M84.7,94v-0.6c-0.9,0.5-1.8,0.8-2.6,0.8c-2,0-2.3-1.4-2.3-3v-4.8h1.8v4.8c0,1.1,0.2,1.5,1.1,1.5
				c0.5,0,1.2-0.2,2-0.5v-5.8h1.8V94H84.7z"/>
			<path class="st16" d="M91.9,94.2c-2.2,0-3.4-1.1-3.4-3.5v-0.9c0-2.4,1.2-3.5,3.4-3.5c2.2,0,3.4,1.1,3.4,3.5v0.9
				C95.3,93.1,94.1,94.2,91.9,94.2z M93.5,89.7c0-1.5-0.5-2-1.7-2c-1.1,0-1.7,0.5-1.7,2v0.9c0,1.5,0.5,2,1.7,2c1.2,0,1.7-0.6,1.7-2
				V89.7z"/>
			<path class="st16" d="M99.7,94.2c-1.1,0-2.3-0.2-2.6-0.3v-1.3c0.4,0,1.5,0.2,2.5,0.2c1.1,0,1.4-0.3,1.4-0.8
				c0-0.5-0.2-0.7-1.4-1.1L99,90.7c-1.4-0.6-2.1-1.2-2.1-2.4c0-1.5,1-2.1,3-2.1c0.9,0,2,0.2,2.4,0.3v1.2c-0.9-0.1-1.7-0.1-2.3-0.1
				c-0.9,0-1.3,0.1-1.3,0.6c0,0.5,0.3,0.6,1.2,1l0.6,0.2c1.6,0.7,2.2,1.2,2.2,2.4C102.7,93.3,101.8,94.2,99.7,94.2z"/>
			<path class="st16" d="M112.4,94v-4.8c0-1.1-0.2-1.5-1.1-1.5c-0.5,0-1.2,0.2-2,0.5V94h-1.8v-7.6h1.7V87c0.8-0.5,1.6-0.8,2.5-0.8
				c2.1,0,2.4,1.2,2.4,3V94H112.4z"/>
			<path class="st16" d="M119.6,94.2c-2.2,0-3.4-1.1-3.4-3.5v-0.9c0-2.4,1.2-3.5,3.4-3.5c2.2,0,3.4,1.1,3.4,3.5v0.9
				C123,93.1,121.8,94.2,119.6,94.2z M121.2,89.7c0-1.5-0.5-2-1.7-2c-1.1,0-1.7,0.5-1.7,2v0.9c0,1.5,0.5,2,1.7,2
				c1.2,0,1.7-0.6,1.7-2V89.7z"/>
			<path class="st16" d="M37.9,110.2v-0.5c-0.5,0.3-1.3,0.7-2.4,0.7c-1.4,0-2.2-0.7-2.2-2.2v-0.3c0-2,1.5-2.3,3.6-2.3h0.9v-0.5
				c0-1.1-0.2-1.3-1.6-1.3c-0.8,0-1.6,0.1-2.4,0.1v-1.2c0.3-0.1,1.5-0.4,2.7-0.4c2.4,0,3.1,0.8,3.1,2.8v5H37.9z M37.8,106.7h-0.9
				c-1.3,0-1.9,0.1-1.9,1.1v0.3c0,0.7,0.4,0.9,1.1,0.9c0.7,0,1.5-0.3,1.7-0.5V106.7z"/>
			<path class="st16" d="M45,110.4c-0.5,0-1.1-0.1-1.5-0.2v2.8h-1.8v-10.4h1.7v0.5c0.7-0.5,1.5-0.7,2.2-0.7c1.7,0,2.7,1,2.7,3.6v0.7
				C48.4,109.5,47,110.4,45,110.4z M46.6,106c0-1.6-0.5-2.1-1.5-2.1c-0.5,0-0.9,0.1-1.6,0.4v4.4c0.5,0.1,1,0.1,1.4,0.1
				c1.1,0,1.7-0.4,1.7-2.2V106z"/>
			<path class="st16" d="M52.2,104.5v5.7h-1.8v-7.6h1.7v0.6c0.7-0.6,1.6-0.8,2.6-0.8v1.6C53.8,104,52.7,104.2,52.2,104.5z"/>
			<path class="st16" d="M59.1,110.4c-2.2,0-3.4-1.1-3.4-3.5v-0.9c0-2.4,1.2-3.5,3.4-3.5c2.2,0,3.4,1.1,3.4,3.5v0.9
				C62.6,109.3,61.4,110.4,59.1,110.4z M60.8,105.9c0-1.5-0.5-2-1.7-2c-1.1,0-1.7,0.5-1.7,2v0.9c0,1.5,0.5,2,1.7,2
				c1.2,0,1.7-0.6,1.7-2V105.9z"/>
			<path class="st16" d="M68.4,110.2h-2.5l-2.4-7.6h1.9l1.2,4.3c0.2,0.7,0.4,1.4,0.5,2.1c0.2-0.6,0.3-1.3,0.5-2.1l1.2-4.3h1.9
				L68.4,110.2z"/>
			<path class="st16" d="M73.4,107v0.1c0,1.1,0.2,1.8,2,1.8c0.8,0,1.7-0.1,2.7-0.2v1.3c-0.6,0.1-1.6,0.3-2.8,0.3
				c-2.7,0-3.7-1.1-3.7-3.7v-0.5c0-2.6,1.2-3.8,3.4-3.8c2.5,0,3.4,1.6,3.4,4v0.6H73.4z M76.7,105.7c0-0.9-0.2-1.8-1.6-1.8
				c-1.4,0-1.6,1-1.6,1.8v0.1h3.3V105.7z"/>
			<path class="st16" d="M83.4,110.4c-2.2,0-3.2-1.2-3.2-3.5v-1c0-2.3,1-3.5,3.2-3.5c1.2,0,2,0.2,2.3,0.3v1.4c-1-0.1-1.6-0.1-2-0.1
				c-1.1,0-1.7,0.4-1.7,2v1c0,1.6,0.6,2,1.7,2c0.4,0,1.1,0,2-0.1v1.4C85.4,110.2,84.6,110.4,83.4,110.4z"/>
			<path class="st16" d="M92.4,110.2v-4.8c0-1.2-0.3-1.5-1.2-1.5c-0.7,0-1.4,0.2-1.9,0.4v5.9h-1.8V99.7h1.8v3.3
				c0.5-0.3,1.4-0.6,2.4-0.6c1.9,0,2.5,1.1,2.5,3v4.8H92.4z"/>
			<path class="st16" d="M100.8,110.2v-0.5c-0.5,0.3-1.3,0.7-2.4,0.7c-1.4,0-2.2-0.7-2.2-2.2v-0.3c0-2,1.5-2.3,3.6-2.3h0.9v-0.5
				c0-1.1-0.2-1.3-1.6-1.3c-0.8,0-1.6,0.1-2.4,0.1v-1.2c0.3-0.1,1.5-0.4,2.7-0.4c2.4,0,3.1,0.8,3.1,2.8v5H100.8z M100.7,106.7h-0.9
				c-1.3,0-1.9,0.1-1.9,1.1v0.3c0,0.7,0.4,0.9,1.1,0.9c0.7,0,1.5-0.3,1.7-0.5V106.7z"/>
			<path class="st16" d="M107.7,110.4c-1,0-1.7-0.1-3.1-0.2V99.7h1.8v3.1c0.6-0.3,1.2-0.4,1.8-0.4c2.1,0,3.1,1.1,3.1,3.4v1.1
				C111.3,109.4,110.1,110.4,107.7,110.4z M109.5,105.8c0-1.4-0.4-1.9-1.5-1.9c-0.3,0-1.1,0.1-1.6,0.3v4.6c0.3,0,0.8,0.1,1.3,0.1
				c1.2,0,1.8-0.5,1.8-2.1V105.8z"/>
			<path class="st16" d="M113.4,110.2V99.7h1.8v10.5H113.4z"/>
			<path class="st16" d="M119,107v0.1c0,1.1,0.2,1.8,2,1.8c0.8,0,1.7-0.1,2.7-0.2v1.3c-0.6,0.1-1.6,0.3-2.8,0.3
				c-2.7,0-3.7-1.1-3.7-3.7v-0.5c0-2.6,1.2-3.8,3.4-3.8c2.5,0,3.4,1.6,3.4,4v0.6H119z M122.3,105.7c0-0.9-0.2-1.8-1.6-1.8
				c-1.4,0-1.6,1-1.6,1.8v0.1h3.3V105.7z"/>
			<path class="st16" d="M128.4,110.4c-1.1,0-2.3-0.2-2.6-0.3v-1.3c0.4,0,1.5,0.2,2.5,0.2c1.1,0,1.4-0.3,1.4-0.8
				c0-0.5-0.2-0.7-1.4-1.1l-0.6-0.2c-1.4-0.6-2.1-1.2-2.1-2.4c0-1.5,1-2.1,3-2.1c0.9,0,2,0.2,2.4,0.3v1.2c-0.9-0.1-1.7-0.1-2.3-0.1
				c-0.9,0-1.3,0.1-1.3,0.6c0,0.5,0.3,0.6,1.2,1l0.6,0.2c1.6,0.7,2.2,1.2,2.2,2.4C131.5,109.5,130.5,110.4,128.4,110.4z"/>
		</g>
	</g>
	<g>
		<g>
			<path class="st16" d="M99.5,192.9c-0.7-0.2-1.5-0.2-2.2-0.2c0.2-0.5,5.6-13.9-8.7-19.3c0,0.1,0,0.2,0,0.4
				c9.2,5.5,4.9,14.3,4.6,14.7c-2.5-1.9-5.7-3.1-9.1-3.1c-3.5,0-6.7,1.2-9.3,3.2c-0.6-1-1.1-2.2-1.4-3.5c-0.2-2.3-0.1-4.3,0.9-6.5
				c1-1.9,2.6-3.6,4.5-4.6c0-0.1,0-0.2,0-0.3c-2.1,0.8-4,2.3-5.7,4.1c-0.7,1-5.2,6.4-2.4,14.5c-0.8,0-1.5,0.1-2.2,0.2
				c-3,0.6-7.7,3.2-9.9,7.5c-0.7,1.3-1,2.5-1.4,3.8c-0.4,2.5-0.3,4.8,0.4,7c0.1-0.1,0.2-0.1,0.3-0.2c-0.3-2.1,0-4.4,0.9-6.4
				c1-2.1,2.5-3.5,4.5-4.7c3.3-1.5,6-1.1,6.1-1.1c-0.1,0.6-0.1,1.2-0.1,1.8c0,6,3.5,11.2,8.6,13.6c0,0.1,0,0.1-0.1,0.2
				c-0.1,0.2-4.8,7.8-13.9,4.4c-0.1,0.1-0.2,0.2-0.3,0.2c1.1,0.9,10.6,7.2,19.4-3.5c0.4,0,0.8,0.1,1.2,0.1c0.2,0,0.5,0,0.7,0
				c1.9,2.6,8.9,10.5,19.6,3.8c-0.1-0.1-0.2-0.2-0.3-0.3c-9.5,3.6-14-4.7-14.1-4.8c5.7-2.6,8.9-7.6,8.9-13.7c0-0.5,0-1-0.1-1.5
				c0,0,0,0,0.1,0c1.9-0.1,3.8,0.2,5.8,1.1c1.9,1.2,3.4,2.6,4.5,4.7c0.9,2,1.2,4.2,0.8,6.4c0.1,0,0.2,0.1,0.3,0.2
				C111.2,208.8,113.2,196.8,99.5,192.9L99.5,192.9z M76.5,203C76.5,203,76.4,203,76.5,203L76.5,203L76.5,203z M80.2,200.4
				c0-1.4,0.8-2.6,1.9-3.3c0.6-0.4,1.3-0.6,2-0.6c0.8,0,1.5,0.2,2.1,0.6c1.1,0.7,1.8,1.9,1.8,3.3c0,1.6-1,3-2.4,3.6
				c-0.5,0.2-1,0.3-1.5,0.3C81.9,204.3,80.2,202.5,80.2,200.4L80.2,200.4z M84.1,189.5c2.3,0,4.5,0.7,6.2,2c-2,1.4-8,3.6-12.6,0.1
				C79.5,190.3,81.7,189.5,84.1,189.5L84.1,189.5z M73.2,200.4c0-0.2,0-0.3,0-0.5c0.2,0.1,5.1,2.7,5.4,9.9
				C75.4,207.9,73.2,204.4,73.2,200.4L73.2,200.4z M89.3,210c0-0.2,0.4-6.8,5.7-9.8c0,0.1,0,0.2,0,0.3C95,204.5,92.7,208.1,89.3,210
				L89.3,210z M89.3,210"/>
		</g>
	</g>
</g>
<g>
</g>
<g>
</g>
<g>
</g>
<g>
</g>
<g>
</g>
<g>
</g>
</svg>
