<?xml version="1.0" encoding="utf-8"?>
<!-- Generator: Adobe Illustrator 24.0.0, SVG Export Plug-In . SVG Version: 6.00 Build 0)  -->
<svg version="1.1" id="Capa_1" xmlns="http://www.w3.org/2000/svg" xmlns:xlink="http://www.w3.org/1999/xlink" x="0px" y="0px"
	 viewBox="0 0 262.6 150" style="enable-background:new 0 0 262.6 150;" xml:space="preserve">
<style type="text/css">
	.st0{fill:#CCCCCC;}
	.st1{fill:#FFC200;}
	.st2{fill:#007A00;}
	.st3{fill:#FF0000;}
</style>
<g>
	<path class="st0" d="M145.8,88.2l1.1,0.2c1.4,0.3,2.8-0.7,3-2.1c0.3-1.4-0.7-2.8-2.1-3L141,82c-1.4-0.3-2.7,0.6-3,2l-1.6,6.8
		c-0.3,1.4,0.5,2.8,1.9,3.1c0.2,0,0.4,0.1,0.6,0.1c1.2,0,2.2-0.8,2.5-2l0.1-0.6l5.4,8.9c0.6,1,0.2,1.9,0,2.2
		c-0.2,0.3-0.8,1.1-1.9,1.1c-1.4,0-2.6,1.2-2.6,2.6s1.2,2.6,2.6,2.6c2.7,0,5.1-1.4,6.4-3.8c1.3-2.4,1.3-5.2-0.2-7.5L145.8,88.2z"/>
	<path class="st0" d="M134.2,99.3c-1-1-2.6-1.1-3.7-0.1c-1,1-1.1,2.6-0.1,3.7l0.6,0.7h-13.4c-1.2,0-1.7-0.8-1.9-1.1
		c-0.2-0.3-0.6-1.2,0.1-2.2l0.6-1c0.8-1.2,0.4-2.8-0.8-3.6c-1.2-0.8-2.8-0.4-3.6,0.8l-0.6,1c-1.4,2.3-1.5,5.1-0.2,7.5
		c1.3,2.4,3.7,3.8,6.5,3.8h13.4l-0.6,0.7c-1,1-1,2.7,0.1,3.7c0.5,0.5,1.1,0.7,1.8,0.7c0.7,0,1.4-0.3,1.9-0.8l4.8-5c1-1,1-2.6,0-3.6
		L134.2,99.3z"/>
	<path class="st0" d="M115.7,91.9c0.3,1.2,1.3,2,2.5,2c0.2,0,0.3,0,0.5,0l6.8-1.3c1.4-0.3,2.3-1.6,2.1-3c-0.3-1.4-1.6-2.3-3-2.1
		l-1.1,0.2l6.1-9.8c0.6-0.9,1.5-1,1.9-1c0.4,0,1.3,0.1,1.9,1.1l1.1,1.8c0.7,1.2,2.3,1.6,3.6,0.9c1.2-0.7,1.6-2.3,0.9-3.6l-1.1-1.8
		c-1.3-2.2-3.7-3.5-6.3-3.5c0,0,0,0,0,0c-2.6,0-4.9,1.3-6.3,3.5l-5.9,9.5l-0.2-0.7c-0.3-1.4-1.7-2.3-3.1-1.9
		c-1.4,0.3-2.3,1.7-1.9,3.1L115.7,91.9z"/>
	<path class="st0" d="M178.1,43.9v-4.8c0-2.3-1.4-4.2-3.4-5L163.5,4.8c-1.1-2.9-3.9-4.8-7-4.8h-28.8c-1.4,0-2.6,1.2-2.6,2.6
		s1.2,2.6,2.6,2.6h23.9v17.3c0,0.8-0.7,1.5-1.5,1.5h-37.8c-0.8,0-1.5-0.7-1.5-1.5V5.2h5.8c1.4,0,2.6-1.2,2.6-2.6S118.1,0,116.7,0
		H106c-3.1,0-5.9,1.9-7,4.8L88,34.1c-2,0.8-3.4,2.7-3.4,5v4.8c0,2.1,1.2,3.9,2.9,4.8l8.1,93c0.4,4.8,4.3,8.4,9.1,8.4h53.1
		c4.8,0,8.7-3.6,9.1-8.4l8.1-93C176.9,47.8,178.1,46,178.1,43.9L178.1,43.9z M89.9,44.1c-0.1,0-0.2-0.1-0.2-0.2v-4.8
		c0-0.1,0.1-0.2,0.2-0.2h82.8c0.1,0,0.2,0.1,0.2,0.2v4.8c0,0.1-0.1,0.2-0.2,0.2H89.9z M103.9,6.6c0.3-0.8,1-1.3,1.8-1.4v17.3
		c0,3.7,3,6.6,6.6,6.6h37.8c3.7,0,6.6-3,6.6-6.6V5.2c0.8,0.1,1.6,0.7,1.9,1.5l10.3,27.1H93.6L103.9,6.6z M161.8,141.2
		c-0.2,2.1-1.9,3.6-4,3.6h-53.1c-2.1,0-3.8-1.6-4-3.6l-8.1-91.9h77.1L161.8,141.2z"/>
	<path d="M216.1,34.1L205.1,4.8c-1.1-2.9-3.9-4.8-7-4.8H171c-1.4,0-2.6,1.2-2.6,2.6s1.2,2.6,2.6,2.6h22.2v17.3
		c0,0.8-0.7,1.5-1.5,1.5h-11.6c-1.4,0-2.6,1.2-2.6,2.6s1.2,2.6,2.6,2.6h11.6c3.7,0,6.6-3,6.6-6.6V5.2c0.8,0.1,1.6,0.7,1.9,1.5
		l10.3,27.1h-24.9c-1.4,0-2.6,1.2-2.6,2.6c0,1.4,1.2,2.6,2.6,2.6h28.7c0,0,0,0,0,0h0c0.1,0,0.2,0.1,0.2,0.2v4.8
		c0,0.1-0.1,0.2-0.2,0.2h-28.7c-1.4,0-2.6,1.2-2.6,2.6c0,1.4,1.2,2.6,2.6,2.6h25.9l-1.3,14.5c-0.1,1.4,0.9,2.7,2.4,2.8
		c0.1,0,0.2,0,0.2,0c1.3,0,2.5-1,2.6-2.4l1.4-15.6c1.7-0.9,2.9-2.7,2.9-4.8v-4.8C219.6,36.8,218.2,34.9,216.1,34.1L216.1,34.1z"/>
	<path d="M212,72.5c-1.4-0.1-2.7,0.9-2.8,2.4l-5.8,66.4c-0.2,2.1-1.9,3.6-4,3.6h-25.9c-1.4,0-2.6,1.2-2.6,2.6c0,1.4,1.2,2.6,2.6,2.6
		h25.9c4.8,0,8.7-3.6,9.1-8.4l5.8-66.4C214.4,73.9,213.4,72.6,212,72.5L212,72.5z"/>
	<path class="st1" d="M54.4,115.6c1.4-0.1,2.5-1.4,2.4-2.8l-5.6-63.5h25.9c1.4,0,2.6-1.2,2.6-2.6s-1.2-2.6-2.6-2.6H48.4c0,0,0,0,0,0
		h0c-0.1,0-0.2-0.1-0.2-0.2v-4.8c0-0.1,0.1-0.2,0.2-0.2h0c0,0,0,0,0,0h28.7c1.4,0,2.6-1.2,2.6-2.6s-1.2-2.6-2.6-2.6H52.1L62.4,6.6
		c0.3-0.8,1-1.3,1.8-1.4v17.3c0,3.7,3,6.6,6.6,6.6h11.7c1.4,0,2.6-1.2,2.6-2.6S84,24,82.5,24H70.9c-0.8,0-1.5-0.7-1.5-1.5V5.2h22.2
		c1.4,0,2.6-1.2,2.6-2.6S93,0,91.6,0H64.5c-3.1,0-5.9,1.9-7,4.8L46.5,34.1c-2,0.8-3.4,2.7-3.4,5v4.8c0,2.1,1.2,3.9,2.9,4.8l5.7,64.5
		c0.1,1.3,1.2,2.4,2.6,2.4C54.3,115.6,54.3,115.6,54.4,115.6L54.4,115.6z"/>
	<path class="st1" d="M89.1,144.8H63.2c-2.1,0-3.8-1.6-4-3.6l-1.5-17.4c-0.1-1.4-1.4-2.5-2.8-2.4c-1.4,0.1-2.5,1.4-2.4,2.8l1.5,17.4
		c0.4,4.8,4.3,8.4,9.1,8.4h25.9c1.4,0,2.6-1.2,2.6-2.6C91.7,146,90.6,144.8,89.1,144.8L89.1,144.8z"/>
	<path class="st2" d="M259.2,34.1L248.1,4.8c-1.1-2.9-3.9-4.8-7-4.8H214c-1.4,0-2.6,1.2-2.6,2.6s1.2,2.6,2.6,2.6h22.2v17.3
		c0,0.8-0.7,1.5-1.5,1.5h-11.6c-1.4,0-2.6,1.2-2.6,2.6s1.2,2.6,2.6,2.6h11.6c3.7,0,6.6-3,6.6-6.6V5.2c0.8,0.1,1.6,0.7,1.9,1.5
		l10.3,27.1h-24.9c-1.4,0-2.6,1.2-2.6,2.6c0,1.4,1.2,2.6,2.6,2.6h28.7c0,0,0,0,0,0h0c0.1,0,0.2,0.1,0.2,0.2v4.8
		c0,0.1-0.1,0.2-0.2,0.2h-28.7c-1.4,0-2.6,1.2-2.6,2.6c0,1.4,1.2,2.6,2.6,2.6h25.9l-1.3,14.5c-0.1,1.4,0.9,2.7,2.4,2.8
		c0.1,0,0.2,0,0.2,0c1.3,0,2.5-1,2.6-2.4l1.4-15.6c1.7-0.9,2.9-2.7,2.9-4.8v-4.8C262.6,36.8,261.2,34.9,259.2,34.1L259.2,34.1z"/>
	<path class="st2" d="M255,72.5c-1.4-0.1-2.7,0.9-2.8,2.4l-5.8,66.4c-0.2,2.1-1.9,3.6-4,3.6h-25.9c-1.4,0-2.6,1.2-2.6,2.6
		c0,1.4,1.2,2.6,2.6,2.6h25.9c4.8,0,8.7-3.6,9.1-8.4l5.8-66.4C257.5,73.9,256.4,72.6,255,72.5L255,72.5z"/>
	<path class="st3" d="M11.4,115.6c1.4-0.1,2.5-1.4,2.4-2.8L8.2,49.3H34c1.4,0,2.6-1.2,2.6-2.6s-1.2-2.6-2.6-2.6H5.4c0,0,0,0,0,0h0
		c-0.1,0-0.2-0.1-0.2-0.2v-4.8c0-0.1,0.1-0.2,0.2-0.2h0c0,0,0,0,0,0H34c1.4,0,2.6-1.2,2.6-2.6s-1.2-2.6-2.6-2.6H9.1L19.4,6.6
		c0.3-0.8,1-1.3,1.8-1.4v17.3c0,3.7,3,6.6,6.6,6.6h11.7c1.4,0,2.6-1.2,2.6-2.6S40.9,24,39.5,24H27.9c-0.8,0-1.5-0.7-1.5-1.5V5.2
		h22.2c1.4,0,2.6-1.2,2.6-2.6S50,0,48.6,0H21.5c-3.1,0-5.9,1.9-7,4.8L3.4,34.1c-2,0.8-3.4,2.7-3.4,5v4.8c0,2.1,1.2,3.9,2.9,4.8
		l5.7,64.5c0.1,1.3,1.2,2.4,2.6,2.4C11.3,115.6,11.3,115.6,11.4,115.6L11.4,115.6z"/>
	<path class="st3" d="M46.1,144.8H20.2c-2.1,0-3.8-1.6-4-3.6l-1.5-17.4c-0.1-1.4-1.4-2.5-2.8-2.4c-1.4,0.1-2.5,1.4-2.4,2.8l1.5,17.4
		c0.4,4.8,4.3,8.4,9.1,8.4h25.9c1.4,0,2.6-1.2,2.6-2.6C48.7,146,47.5,144.8,46.1,144.8L46.1,144.8z"/>
</g>
</svg>
