<?xml version="1.0" encoding="utf-8"?>
<!-- Generator: Adobe Illustrator 19.2.1, SVG Export Plug-In . SVG Version: 6.00 Build 0)  -->
<svg version="1.1" id="Capa_1" xmlns="http://www.w3.org/2000/svg" xmlns:xlink="http://www.w3.org/1999/xlink" x="0px" y="0px"
	 viewBox="0 0 465 465" style="enable-background:new 0 0 465 465;" xml:space="preserve">
<style type="text/css">
	.st0{fill:#FFFFFF;}
	.st1{opacity:0.1;fill:#FFFFFF;}
	.st2{opacity:0.2;fill:#FFFFFF;}
	.st3{opacity:0.8;fill:#FFFFFF;}
	.st4{opacity:0.5;fill:#FFFFFF;}
</style>
<g>
	<circle class="st0" cx="34.2" cy="34.2" r="8.1"/>
	<circle class="st1" cx="78.3" cy="34.2" r="8.1"/>
	<circle class="st2" cx="122.3" cy="34.2" r="8.1"/>
	<circle class="st3" cx="166.4" cy="34.2" r="8.1"/>
	<circle class="st4" cx="210.5" cy="34.2" r="8.1"/>
	<circle class="st0" cx="254.5" cy="34.2" r="8.1"/>
	<circle class="st1" cx="298.6" cy="34.2" r="8.1"/>
	<circle class="st2" cx="342.7" cy="34.2" r="8.1"/>
	<circle class="st3" cx="386.7" cy="34.2" r="8.1"/>
	<circle class="st4" cx="430.8" cy="34.2" r="8.1"/>
	<circle class="st0" cx="78.3" cy="78.3" r="8.1"/>
	<circle class="st1" cx="122.3" cy="78.3" r="8.1"/>
	<circle class="st2" cx="166.4" cy="78.3" r="8.1"/>
	<circle class="st3" cx="210.5" cy="78.3" r="8.1"/>
	<circle class="st4" cx="254.5" cy="78.3" r="8.1"/>
	<circle class="st0" cx="298.6" cy="78.3" r="8.1"/>
	<circle class="st1" cx="342.7" cy="78.3" r="8.1"/>
	<circle class="st2" cx="386.7" cy="78.3" r="8.1"/>
	<circle class="st3" cx="430.8" cy="78.3" r="8.1"/>
	<circle class="st4" cx="34.2" cy="78.3" r="8.1"/>
	<circle class="st0" cx="122.3" cy="122.3" r="8.1"/>
	<circle class="st1" cx="166.4" cy="122.3" r="8.1"/>
	<circle class="st2" cx="210.5" cy="122.3" r="8.1"/>
	<circle class="st3" cx="254.5" cy="122.3" r="8.1"/>
	<circle class="st4" cx="298.6" cy="122.3" r="8.1"/>
	<circle class="st0" cx="342.7" cy="122.3" r="8.1"/>
	<circle class="st1" cx="386.7" cy="122.3" r="8.1"/>
	<circle class="st2" cx="430.8" cy="122.3" r="8.1"/>
	<circle class="st3" cx="34.2" cy="122.3" r="8.1"/>
	<circle class="st4" cx="78.3" cy="122.3" r="8.1"/>
	<circle class="st0" cx="166.4" cy="166.4" r="8.1"/>
	<circle class="st1" cx="210.5" cy="166.4" r="8.1"/>
	<circle class="st2" cx="254.5" cy="166.4" r="8.1"/>
	<circle class="st3" cx="298.6" cy="166.4" r="8.1"/>
	<circle class="st4" cx="342.7" cy="166.4" r="8.1"/>
	<circle class="st0" cx="386.7" cy="166.4" r="8.1"/>
	<circle class="st1" cx="430.8" cy="166.4" r="8.1"/>
	<circle class="st2" cx="34.2" cy="166.4" r="8.1"/>
	<circle class="st3" cx="78.3" cy="166.4" r="8.1"/>
	<circle class="st4" cx="122.3" cy="166.4" r="8.1"/>
	<circle class="st0" cx="210.5" cy="210.5" r="8.1"/>
	<circle class="st1" cx="254.5" cy="210.5" r="8.1"/>
	<circle class="st2" cx="298.6" cy="210.5" r="8.1"/>
	<circle class="st3" cx="342.7" cy="210.5" r="8.1"/>
	<circle class="st4" cx="386.7" cy="210.5" r="8.1"/>
	<circle class="st0" cx="430.8" cy="210.5" r="8.1"/>
	<circle class="st1" cx="34.2" cy="210.5" r="8.1"/>
	<circle class="st2" cx="78.3" cy="210.5" r="8.1"/>
	<circle class="st3" cx="122.3" cy="210.5" r="8.1"/>
	<circle class="st4" cx="166.4" cy="210.5" r="8.1"/>
	<circle class="st0" cx="34.2" cy="251.8" r="8.1"/>
	<circle class="st1" cx="78.3" cy="251.8" r="8.1"/>
	<circle class="st2" cx="122.3" cy="251.8" r="8.1"/>
	<circle class="st3" cx="166.4" cy="251.8" r="8.1"/>
	<circle class="st4" cx="210.5" cy="251.8" r="8.1"/>
	<circle class="st0" cx="254.5" cy="251.8" r="8.1"/>
	<circle class="st1" cx="298.6" cy="251.8" r="8.1"/>
	<circle class="st2" cx="342.7" cy="251.8" r="8.1"/>
	<circle class="st3" cx="386.7" cy="251.8" r="8.1"/>
	<circle class="st4" cx="430.8" cy="251.8" r="8.1"/>
	<circle class="st0" cx="78.3" cy="295.9" r="8.1"/>
	<circle class="st1" cx="122.3" cy="295.9" r="8.1"/>
	<circle class="st2" cx="166.4" cy="295.9" r="8.1"/>
	<circle class="st3" cx="210.5" cy="295.9" r="8.1"/>
	<circle class="st4" cx="254.5" cy="295.9" r="8.1"/>
	<circle class="st0" cx="298.6" cy="295.9" r="8.1"/>
	<circle class="st1" cx="342.7" cy="295.9" r="8.1"/>
	<circle class="st2" cx="386.7" cy="295.9" r="8.1"/>
	<circle class="st3" cx="430.8" cy="295.9" r="8.1"/>
	<circle class="st4" cx="34.2" cy="295.9" r="8.1"/>
	<circle class="st0" cx="122.3" cy="339.9" r="8.1"/>
	<circle class="st1" cx="166.4" cy="339.9" r="8.1"/>
	<circle class="st2" cx="210.5" cy="339.9" r="8.1"/>
	<circle class="st3" cx="254.5" cy="339.9" r="8.1"/>
	<circle class="st4" cx="298.6" cy="339.9" r="8.1"/>
	<circle class="st0" cx="342.7" cy="339.9" r="8.1"/>
	<circle class="st1" cx="386.7" cy="339.9" r="8.1"/>
	<circle class="st2" cx="430.8" cy="339.9" r="8.1"/>
	<circle class="st3" cx="34.2" cy="339.9" r="8.1"/>
	<circle class="st4" cx="78.3" cy="339.9" r="8.1"/>
	<circle class="st0" cx="166.4" cy="384" r="8.1"/>
	<circle class="st1" cx="210.5" cy="384" r="8.1"/>
	<circle class="st2" cx="254.5" cy="384" r="8.1"/>
	<circle class="st3" cx="298.6" cy="384" r="8.1"/>
	<circle class="st4" cx="342.7" cy="384" r="8.1"/>
	<circle class="st0" cx="386.7" cy="384" r="8.1"/>
	<circle class="st1" cx="430.8" cy="384" r="8.1"/>
	<circle class="st2" cx="34.2" cy="384" r="8.1"/>
	<circle class="st3" cx="78.3" cy="384" r="8.1"/>
	<circle class="st4" cx="122.3" cy="384" r="8.1"/>
	<circle class="st0" cx="210.5" cy="428.1" r="8.1"/>
	<circle class="st1" cx="254.5" cy="428.1" r="8.1"/>
	<circle class="st2" cx="298.6" cy="428.1" r="8.1"/>
	<circle class="st3" cx="342.7" cy="428.1" r="8.1"/>
	<circle class="st4" cx="386.7" cy="428.1" r="8.1"/>
	<circle class="st0" cx="430.8" cy="428.1" r="8.1"/>
	<circle class="st1" cx="34.2" cy="428.1" r="8.1"/>
	<circle class="st2" cx="78.3" cy="428.1" r="8.1"/>
	<circle class="st3" cx="122.3" cy="428.1" r="8.1"/>
	<circle class="st4" cx="166.4" cy="428.1" r="8.1"/>
</g>
</svg>
