<?xml version="1.0" encoding="utf-8"?>
<!-- Generator: Adobe Illustrator 24.0.0, SVG Export Plug-In . SVG Version: 6.00 Build 0)  -->
<svg version="1.1" id="Capa_1" xmlns="http://www.w3.org/2000/svg" xmlns:xlink="http://www.w3.org/1999/xlink" x="0px" y="0px"
	 viewBox="0 0 704.1 244.8" style="enable-background:new 0 0 704.1 244.8;" xml:space="preserve">
<style type="text/css">
	.st0{fill:#09478E;}
	.st1{fill:url(#SVGID_2_);}
	.st2{fill:url(#shadow_4_);}
	.st3{opacity:0.3;}
	.st4{fill:#FFFFFF;}
	.st5{opacity:0.8;clip-path:url(#SVGID_3_);}
	.st6{fill:#575757;}
	.st7{fill:#999999;}
	.st8{fill:url(#SVGID_4_);}
	.st9{fill:url(#shadow_5_);}
</style>
<g>
	<polygon class="st0" points="704.1,119.1 646.8,193.1 199,113.5 172,0 	"/>
	
		<linearGradient id="SVGID_2_" gradientUnits="userSpaceOnUse" x1="696.5416" y1="-1112.5358" x2="209.9932" y2="-1062.9586" gradientTransform="matrix(1 0 0 -1 6.8172 -986.0427)">
		<stop  offset="0" style="stop-color:#CCCBCB"/>
		<stop  offset="0.3206" style="stop-color:#E8E7E7"/>
		<stop  offset="0.6044" style="stop-color:#F9F9F9"/>
		<stop  offset="0.8114" style="stop-color:#FFFFFF"/>
	</linearGradient>
	<polygon class="st1" points="704.1,119.1 646.8,193.1 199,113.5 172,0 	"/>
	<polygon class="st0" points="0,182.3 172,0 198.9,113.3 45.8,244.8 	"/>
	
		<linearGradient id="shadow_4_" gradientUnits="userSpaceOnUse" x1="-10.2509" y1="-1185.2157" x2="185.0024" y2="-1051.7826" gradientTransform="matrix(1 0 0 -1 6.8172 -986.0427)">
		<stop  offset="0" style="stop-color:#CCCBCB"/>
		<stop  offset="0.3927" style="stop-color:#E8E7E7"/>
		<stop  offset="0.7403" style="stop-color:#F9F9F9"/>
		<stop  offset="0.9938" style="stop-color:#FFFFFF"/>
	</linearGradient>
	<polygon id="shadow_1_" class="st2" points="0,182.3 172,0 198.9,113.3 45.8,244.8 	"/>
	<g id="edge_00000014628023740939479730000006866303672037593520_" class="st3">
		<path class="st4" d="M172,0c0,0,0.5,1.8,1.3,4.8c0.8,3.1,2.1,7.5,3.4,12.7c1.3,5.3,3,11.4,4.6,18.1c1.6,6.6,3.3,13.7,5.1,20.8
			c1.6,7.1,3.3,14.2,4.8,20.8c1.5,6.6,2.8,12.9,4,18.2c1.2,5.3,2,9.8,2.7,12.9c0.6,3.1,1,4.9,1,4.9s-0.5-1.8-1.3-4.8
			c-0.8-3.1-2.1-7.5-3.4-12.7c-1.3-5.3-3-11.4-4.6-18.1c-1.6-6.6-3.3-13.7-5.1-20.8c-1.6-7.1-3.3-14.2-4.8-20.8
			c-1.5-6.6-2.8-12.9-4-18.2c-1.2-5.3-2-9.8-2.7-12.9C172.4,1.8,172,0,172,0z"/>
	</g>
</g>
<g>
	<defs>
		<path id="SVGID_1_" d="M704.1,119.1L646.8,193c-19.6,7.9-580,54.7-601,51.7L0,182.7c0,0,38.8-41.6,81.1-86.2
			c22.8-24,91.6-95.7,91.6-95.7s189.7,41.8,252.4,55.8C495.4,72.3,704.1,119.1,704.1,119.1z"/>
	</defs>
	<clipPath id="SVGID_3_">
		<use xlink:href="#SVGID_1_"  style="overflow:visible;"/>
	</clipPath>
	<g id="shadow_3_" class="st5">
		<path class="st6" d="M172.7,0.7c0,0-68.9,71.7-91.6,95.7c-42.3,44.6-75.3,86.2-75.3,86.2l40.1,62
			C72.5,221.2,179.4,121.4,199,113.5L646.8,193l57.3-73.9c0,0-208.7-46.8-279.1-62.6C362.4,42.6,172.7,0.7,172.7,0.7z"/>
	</g>
</g>
<polygon class="st7" points="704.1,119.1 646.8,193 199,113.4 172,-0.1 "/>
<linearGradient id="SVGID_4_" gradientUnits="userSpaceOnUse" x1="696.5417" y1="-1112.469" x2="209.9933" y2="-1062.8918" gradientTransform="matrix(1 0 0 -1 6.8172 -986.0427)">
	<stop  offset="0" style="stop-color:#CCCCCC"/>
	<stop  offset="0.3144" style="stop-color:#E7E7E7"/>
	<stop  offset="0.6018" style="stop-color:#F9F9F9"/>
	<stop  offset="0.8114" style="stop-color:#FFFFFF"/>
</linearGradient>
<polygon class="st8" points="704.1,119.1 646.8,193 199,113.4 172,-0.1 "/>
<polygon class="st7" points="0,182.2 172,-0.1 198.9,113.2 45.8,244.7 "/>
<linearGradient id="shadow_5_" gradientUnits="userSpaceOnUse" x1="-10.2508" y1="-1185.1489" x2="185.0025" y2="-1051.7158" gradientTransform="matrix(1 0 0 -1 6.8172 -986.0427)">
	<stop  offset="0" style="stop-color:#CCCCCC"/>
	<stop  offset="0.3851" style="stop-color:#E7E7E7"/>
	<stop  offset="0.7371" style="stop-color:#F9F9F9"/>
	<stop  offset="0.9938" style="stop-color:#FFFFFF"/>
</linearGradient>
<polygon id="shadow_2_" class="st9" points="0,182.2 172,-0.1 198.9,113.2 45.8,244.7 "/>
<g id="edge_3_" class="st3">
	<path class="st4" d="M198.9,113.2c0,0-2.3,2.1-6.5,5.8c-4.1,3.7-10,8.9-17.1,15.2c-7.1,6.2-15.4,13.5-24.3,21.3
		c-8.9,7.7-18.5,16-28,24.2c-9.6,8.2-19.2,16.4-28.2,24c-9,7.7-17.5,14.7-24.7,20.8c-7.3,6-13.3,11.1-17.6,14.6
		c-4.3,3.5-6.7,5.5-6.7,5.5s2.3-2.1,6.5-5.8c4.1-3.7,10-8.9,17.1-15.2c7.1-6.2,15.4-13.6,24.3-21.3c8.9-7.7,18.5-16,28-24.2
		c9.6-8.2,19.2-16.4,28.2-24c9-7.6,17.5-14.7,24.7-20.8c7.3-6,13.3-11.1,17.6-14.6C196.5,115.2,198.9,113.2,198.9,113.2z"/>
</g>
<g id="edge_2_" class="st3">
	<path class="st4" d="M172-0.1c0,0,0.5,1.8,1.3,4.8c0.8,3.1,2.1,7.5,3.4,12.7c1.3,5.3,3,11.4,4.6,18.1c1.6,6.6,3.3,13.7,5.1,20.8
		c1.6,7.1,3.3,14.2,4.8,20.8c1.5,6.6,2.8,12.9,4,18.2c1.2,5.3,2,9.8,2.7,12.9c0.6,3.1,1,4.9,1,4.9s-0.5-1.8-1.3-4.8
		c-0.8-3.1-2.1-7.5-3.4-12.7c-1.3-5.3-3-11.4-4.6-18.1c-1.6-6.6-3.3-13.7-5.1-20.8c-1.6-7.1-3.3-14.2-4.8-20.8
		c-1.5-6.6-2.8-12.9-4-18.2c-1.2-5.3-2-9.8-2.7-12.9C172.4,1.7,172-0.1,172-0.1z"/>
</g>
<g id="edge_1_" class="st3">
	<path class="st4" d="M646.8,193c0,0-28-4.8-70.1-11.9c-21-3.7-45.5-7.9-71.8-12.5c-26.2-4.6-54.2-9.6-82.2-14.5
		c-28-5-56-10.1-82.2-14.8c-26.2-4.8-50.7-9.3-71.7-13.1c-41.9-7.8-69.9-13-69.9-13s28,4.8,70.1,11.9c21,3.7,45.5,7.9,71.8,12.5
		c26.2,4.6,54.2,9.6,82.2,14.5c28,5,56,10.1,82.2,14.8c26.2,4.8,50.7,9.3,71.7,13.1C618.9,187.8,646.8,193,646.8,193z"/>
</g>
<g>
	<path class="st4" d="M365.5,103.6l3.1-17.6l11.2,2l-0.5,2.7l-7.9-1.4l-0.8,4.5l7.4,1.3l-0.5,2.6l-7.4-1.3l-0.9,5l7.9,1.4l-0.5,2.7
		L365.5,103.6z"/>
	<path class="st4" d="M379.7,106.1l3.2-18.4l3.1,0.5l-3.2,18.4L379.7,106.1z"/>
	<path class="st4" d="M386.4,107.3l2.3-13.3l3.1,0.6l-2.3,13.3L386.4,107.3z M389.1,91.9l0.5-3l3.2,0.6l-0.5,3L389.1,91.9z"/>
	<path class="st4" d="M408.1,111.1l1.5-8.7c0.3-1.5,0.4-2.3-1.3-2.6c-0.8-0.1-1.9,0-2.9,0.3c0,0.5-0.1,1.1-0.2,1.5l-1.5,8.7
		l-3.1-0.5l1.5-8.7c0.3-1.5,0.4-2.3-1.1-2.6c-1-0.2-2.1,0.1-3,0.3l-1.8,10.2l-3.1-0.5l2.3-13.3l3,0.5l-0.2,1.1
		c1.2-0.7,2.8-1,4.2-0.7c1.6,0.3,2.4,1,2.8,2c1.7-0.8,3.2-0.9,4.4-0.7c3.8,0.7,3.6,3.2,3.1,5.6l-1.5,8.8L408.1,111.1z"/>
	<path class="st4" d="M414.7,112.3l2.3-13.3l3.1,0.6l-2.3,13.3L414.7,112.3z M417.4,96.9l0.5-3l3.2,0.6l-0.5,3L417.4,96.9z"/>
	<path class="st4" d="M429.9,115l1.5-8.4c0.3-1.9,0.1-2.6-1.4-2.9c-0.9-0.2-2.1,0-3.7,0.3l-1.8,10.1l-3.1-0.5l2.3-13.3l3,0.5
		l-0.2,1.1c1.6-0.6,3.1-0.9,4.6-0.6c3.8,0.7,3.9,2.9,3.3,6l-1.5,8.4L429.9,115z"/>
	<path class="st4" d="M443.9,117.4l0.2-0.9c-0.9,0.4-2.5,0.8-4.4,0.5c-2.5-0.4-3.7-1.9-3.2-4.5l0.1-0.5c0.6-3.5,3.3-3.6,7-2.9
		l1.6,0.3l0.1-0.8c0.3-1.9,0-2.3-2.4-2.8c-1.3-0.2-2.7-0.4-4.2-0.5l0.4-2.1c0.6-0.1,2.7-0.3,4.8,0.1c4.3,0.8,5.1,2.4,4.5,5.8
		l-1.5,8.8L443.9,117.4z M444.8,111.3l-1.7-0.3c-2.3-0.4-3.3-0.3-3.6,1.4l-0.1,0.6c-0.2,1.2,0.5,1.7,1.6,1.9
		c1.3,0.2,2.7-0.1,3.2-0.3L444.8,111.3z"/>
	<path class="st4" d="M455,119.8c-3.8-0.7-5.2-3.2-4.5-7.2l0.3-1.7c0.7-4.1,2.9-5.8,6.7-5.2c2,0.4,3.4,0.9,4,1.2l-0.4,2.4
		c-1.7-0.4-2.8-0.7-3.5-0.8c-1.9-0.3-3.1,0.1-3.6,3l-0.3,1.7c-0.5,2.9,0.5,3.7,2.4,4.1c0.7,0.1,1.9,0.3,3.6,0.4l-0.4,2.4
		C458.6,120,457.1,120.1,455,119.8z"/>
	<path class="st4" d="M462,120.6l2.3-13.3l3.1,0.6l-2.3,13.3L462,120.6z M464.7,105.2l0.5-3l3.2,0.6l-0.5,3L464.7,105.2z"/>
	<path class="st4" d="M474.1,123.1c-3.9-0.7-5.7-3-4.9-7.3l0.3-1.6c0.7-4.2,3.2-5.8,7.1-5.1s5.7,3,4.9,7.2l-0.3,1.6
		C480.4,122.2,478,123.8,474.1,123.1z M478.4,115.8c0.5-2.6-0.3-3.7-2.3-4c-2-0.4-3.1,0.4-3.5,3l-0.3,1.6c-0.5,2.6,0.3,3.7,2.3,4
		c2,0.4,3.1-0.5,3.5-3L478.4,115.8z M477.7,108.1l-3-0.5l3.7-3l3.6,0.6L477.7,108.1z"/>
	<path class="st4" d="M491.6,125.8l1.5-8.4c0.3-1.9,0.1-2.6-1.4-2.9c-0.9-0.2-2.1,0-3.7,0.3l-1.8,10.1l-3.1-0.5l2.3-13.3l3,0.5
		l-0.2,1.1c1.6-0.6,3.1-0.9,4.6-0.6c3.8,0.7,3.9,2.9,3.3,6l-1.5,8.4L491.6,125.8z"/>
</g>
<g>
</g>
<g>
</g>
<g>
</g>
<g>
</g>
<g>
</g>
<g>
</g>
</svg>
