<?xml version="1.0" encoding="utf-8"?>
<!-- Generator: Adobe Illustrator 24.0.0, SVG Export Plug-In . SVG Version: 6.00 Build 0)  -->
<svg version="1.1" id="Capa_1" xmlns="http://www.w3.org/2000/svg" xmlns:xlink="http://www.w3.org/1999/xlink" x="0px" y="0px"
	 viewBox="0 0 574.5 187" style="enable-background:new 0 0 574.5 187;" xml:space="preserve">
<style type="text/css">
	.st0{fill:#B3B3B3;}
	.st1{fill:url(#SVGID_1_);}
	.st2{fill:url(#SVGID_2_);}
	.st3{opacity:0.5;}
	.st4{fill:#FFFFFF;}
</style>
<g id="_x32__1_">
	<polygon class="st0" points="514.4,148.7 173.7,108.4 147.9,0.2 574.5,71.1 	"/>
	
		<linearGradient id="SVGID_1_" gradientUnits="userSpaceOnUse" x1="564.8819" y1="-1726.1476" x2="177.0323" y2="-1686.6276" gradientTransform="matrix(1 0 0 -1 6.8172 -1627.1693)">
		<stop  offset="0" style="stop-color:#CCCCCC"/>
		<stop  offset="0.3144" style="stop-color:#E7E7E7"/>
		<stop  offset="0.6018" style="stop-color:#F9F9F9"/>
		<stop  offset="0.8114" style="stop-color:#FFFFFF"/>
	</linearGradient>
	<polygon class="st1" points="514.4,148.7 173.7,108.4 147.9,0.2 574.5,71.1 	"/>
	<polygon class="st0" points="0,119.3 147.9,0 173.7,108.4 49.7,187 	"/>
	
		<linearGradient id="SVGID_2_" gradientUnits="userSpaceOnUse" x1="6.1527" y1="-1782.3823" x2="157.1884" y2="-1679.1669" gradientTransform="matrix(1 0 0 -1 6.8172 -1627.1693)">
		<stop  offset="0" style="stop-color:#CCCCCC"/>
		<stop  offset="0.3851" style="stop-color:#E7E7E7"/>
		<stop  offset="0.7371" style="stop-color:#F9F9F9"/>
		<stop  offset="0.9938" style="stop-color:#FFFFFF"/>
	</linearGradient>
	<polygon class="st2" points="0,119.3 147.9,0 173.7,108.4 49.7,187 	"/>
	<g class="st3">
		<path class="st4" d="M173.7,108.4c0,0-1.9,1.3-5.2,3.5c-3.3,2.2-8.1,5.5-13.8,9.2c-5.8,3.8-12.4,8.2-19.7,12.9
			c-7.2,4.6-15,9.6-22.7,14.5c-7.8,4.9-15.5,9.8-22.8,14.3c-7.3,4.6-14.2,8.7-20,12.3c-5.9,3.6-10.8,6.5-14.2,8.6
			c-3.5,2-5.4,3.2-5.4,3.2s1.9-1.3,5.2-3.5c3.3-2.2,8.1-5.5,13.8-9.2c5.8-3.8,12.4-8.2,19.7-12.9c7.2-4.6,15-9.6,22.7-14.5
			c7.8-4.9,15.5-9.8,22.8-14.3c7.3-4.6,14.2-8.7,20-12.3c5.9-3.6,10.8-6.5,14.2-8.6C171.7,109.6,173.7,108.4,173.7,108.4z"/>
	</g>
	<g class="st3">
		<path class="st4" d="M147.9,0c0,0,0.5,1.7,1.3,4.6c0.8,2.9,2,7.1,3.3,12.2c1.3,5.1,2.9,10.9,4.4,17.3c1.6,6.3,3.2,13.1,4.9,19.9
			c1.6,6.8,3.1,13.6,4.6,19.9c1.5,6.4,2.7,12.3,3.8,17.4c1.1,5.1,1.9,9.4,2.6,12.4c0.6,3,0.9,4.7,0.9,4.7s-0.5-1.7-1.3-4.6
			c-0.8-2.9-2-7.1-3.3-12.2c-1.3-5.1-2.9-10.9-4.4-17.3c-1.6-6.3-3.2-13.1-4.9-19.9c-1.6-6.8-3.1-13.6-4.6-19.9
			c-1.5-6.4-2.7-12.3-3.8-17.4c-1.1-5.1-1.9-9.4-2.6-12.4C148.2,1.7,147.9,0,147.9,0z"/>
	</g>
	<g class="st3">
		<path class="st4" d="M514.4,148.7c0,0-21.3-2.3-53.3-5.7c-16-1.8-34.6-3.9-54.6-6.1c-20-2.3-41.3-4.8-62.6-7.3
			c-21.3-2.6-42.6-5.1-62.5-7.5c-20-2.5-38.6-4.8-54.5-6.8c-31.9-4.1-53.2-6.9-53.2-6.9s21.3,2.3,53.3,5.7c16,1.8,34.6,3.9,54.6,6.2
			c20,2.3,41.3,4.8,62.6,7.3c21.3,2.6,42.6,5.1,62.5,7.5c20,2.5,38.6,4.8,54.5,6.8C493.1,146,514.4,148.7,514.4,148.7z"/>
	</g>
</g>
<g>
	<g>
		<path class="st4" d="M292,86.5c-2.3-0.3-4.6-0.9-5.5-1.3l0.3-2.5c1.4,0.3,3.1,0.7,5.3,1c2.1,0.3,3.2-0.2,3.5-1.8
			c0.2-1.1-0.2-1.8-1.9-2.8l-2.5-1.4c-2.5-1.4-3.7-3.1-3.3-5.7c0.5-3.4,2.8-4.4,6.9-3.8c2.2,0.3,4.3,0.9,5.1,1.3l-0.3,2.5
			c-1.3-0.3-3.1-0.7-5-1c-2.1-0.3-3.2-0.1-3.4,1.4c-0.1,1.1,0.3,1.7,2,2.6l2.3,1.3c2.9,1.7,4,3.1,3.6,6.1
			C298.5,85.5,295.9,87,292,86.5z"/>
		<path class="st4" d="M309.8,88.4l0.1-1.1c-1.7,0.6-3.3,1-4.8,0.8c-3.5-0.5-3.7-3-3.3-5.8l1.1-8.5l3.1,0.4l-1.1,8.5
			c-0.3,1.9,0,2.6,1.6,2.8c0.9,0.1,2.1-0.1,3.6-0.4l1.4-10.2l3.1,0.4l-1.8,13.4L309.8,88.4z"/>
		<path class="st4" d="M320.4,90.2c-1.9-0.2-3.9-0.9-4.5-1.1l0.3-2.2c0.7,0.1,2.7,0.7,4.4,0.9c2,0.3,2.5-0.1,2.7-1.1
			c0.1-0.9-0.3-1.2-2.1-2.3l-1-0.5c-2.4-1.3-3.4-2.6-3.1-4.7c0.4-2.7,2.3-3.4,5.8-2.9c1.5,0.2,3.5,0.8,4.1,1.1l-0.3,2.2
			c-1.5-0.3-2.9-0.6-4.1-0.8c-1.6-0.2-2.3-0.2-2.5,0.8c-0.1,0.9,0.3,1.2,1.9,2l1,0.6c2.7,1.5,3.6,2.6,3.3,4.8
			C326,89.4,324.1,90.7,320.4,90.2z"/>
		<path class="st4" d="M333.4,91.9c-2.6-0.4-3.5-1.5-3.2-4.3l1-7.4l-2.5-0.5l0.3-2.3l2.5,0.3l0.5-3.4l3.1,0.4l-0.5,3.4l3.3,0.4
			l-0.3,2.5l-3.3-0.4l-1,7.3c-0.2,1.2-0.1,1.5,1,1.6c0.7,0.1,1.6,0.2,2,0.2l-0.3,2.1C335.8,92,334.6,92.1,333.4,91.9z"/>
		<path class="st4" d="M338.7,92.3l1.8-13.4l3.2,0.4l-1.8,13.4L338.7,92.3z M340.8,76.8l0.4-3l3.2,0.4l-0.4,3L340.8,76.8z"/>
		<path class="st4" d="M350.4,94.2c-2.6-0.3-3.5-1.5-3.2-4.3l1-7.4l-2.5-0.5l0.3-2.3l2.5,0.3l0.5-3.4l3.1,0.4l-0.5,3.4l3.3,0.4
			l-0.3,2.5l-3.3-0.4l-1,7.3c-0.2,1.2-0.1,1.5,1,1.6c0.7,0.1,1.6,0.2,2,0.2l-0.3,2.1C352.8,94.2,351.6,94.3,350.4,94.2z"/>
		<path class="st4" d="M364.2,95.6l0.1-1.1c-1.7,0.6-3.3,1-4.8,0.8c-3.5-0.5-3.7-3-3.3-5.8l1.1-8.5l3.1,0.4l-1.1,8.5
			c-0.3,1.9,0,2.6,1.6,2.8c0.9,0.1,2.1-0.1,3.6-0.4l1.4-10.2l3.1,0.4L367.3,96L364.2,95.6z"/>
		<path class="st4" d="M375.8,97.5c-3.9-0.5-5.3-2.9-4.8-7l0.2-1.7c0.5-4.1,2.6-6,6.5-5.4c2,0.3,3.5,0.8,4.1,1l-0.3,2.4
			c-1.7-0.4-2.8-0.6-3.6-0.7c-2-0.3-3.1,0.2-3.5,3.1l-0.2,1.7c-0.4,2.9,0.6,3.7,2.6,3.9c0.7,0.1,1.9,0.2,3.6,0.3l-0.3,2.4
			C379.4,97.7,377.9,97.8,375.8,97.5z"/>
		<path class="st4" d="M382.8,98.1l1.8-13.4l3.2,0.4l-1.8,13.4L382.8,98.1z M384.8,82.6l0.4-3l3.2,0.4l-0.4,3L384.8,82.6z"/>
		<path class="st4" d="M395,100.1c-3.9-0.5-5.8-2.8-5.2-7l0.2-1.6c0.6-4.2,3-5.9,6.9-5.4c3.9,0.5,5.8,2.8,5.2,7l-0.2,1.6
			C401.3,98.9,398.9,100.6,395,100.1z M399,92.6c0.3-2.6-0.4-3.6-2.5-3.9c-2-0.3-3.1,0.6-3.4,3.1l-0.2,1.6c-0.3,2.6,0.4,3.7,2.5,3.9
			s3.1-0.6,3.4-3.2L399,92.6z M397.9,85l-3-0.4l3.6-3.1l3.7,0.5L397.9,85z"/>
		<path class="st4" d="M412.5,102l1.1-8.5c0.3-1.9,0-2.6-1.5-2.8c-0.9-0.1-2.1,0.1-3.6,0.4l-1.3,10.2l-3.1-0.4l1.8-13.4l3,0.4
			l-0.1,1.1c1.6-0.6,3.1-1,4.6-0.8c3.8,0.5,4,2.8,3.6,5.8l-1.1,8.5L412.5,102z"/>
	</g>
</g>
<g>
</g>
<g>
</g>
<g>
</g>
<g>
</g>
<g>
</g>
<g>
</g>
</svg>
