<?xml version="1.0" encoding="utf-8"?>
<!-- Generator: Adobe Illustrator 24.0.0, SVG Export Plug-In . SVG Version: 6.00 Build 0)  -->
<svg version="1.1" id="Capa_1" xmlns="http://www.w3.org/2000/svg" xmlns:xlink="http://www.w3.org/1999/xlink" x="0px" y="0px"
	 viewBox="0 0 436.2 142.9" style="enable-background:new 0 0 436.2 142.9;" xml:space="preserve">
<style type="text/css">
	.st0{fill:#F2F2F2;}
	.st1{fill:url(#SVGID_1_);}
	.st2{fill:url(#SVGID_2_);}
	.st3{opacity:0.5;}
	.st4{fill:#FFFFFF;}
	.st5{opacity:0.4;}
	.st6{fill:#999999;}
</style>
<g id="_x33__2_">
	<polygon class="st0" points="372.7,116 141.7,102.8 117.2,0 436.2,33.9 	"/>
	
		<linearGradient id="SVGID_1_" gradientUnits="userSpaceOnUse" x1="434.5179" y1="-1044.4084" x2="106.1435" y2="-1008.0837" gradientTransform="matrix(1 0 0 -1 6.8172 -959.1975)">
		<stop  offset="0" style="stop-color:#6E6E6E"/>
		<stop  offset="0.3615" style="stop-color:#9F9F9F"/>
		<stop  offset="1" style="stop-color:#FFFFFF"/>
	</linearGradient>
	<polygon class="st1" points="372.7,116 141.7,102.8 117.2,0 436.2,33.9 	"/>
	<polygon class="st0" points="0,70.6 117.2,0 141.7,102.8 53,142.9 	"/>
	
		<linearGradient id="SVGID_2_" gradientUnits="userSpaceOnUse" x1="3.4907" y1="-1070.9154" x2="136.1214" y2="-1003.7798" gradientTransform="matrix(1 0 0 -1 6.8172 -959.1975)">
		<stop  offset="2.748810e-02" style="stop-color:#6E6E6E"/>
		<stop  offset="0.3442" style="stop-color:#9F9F9F"/>
		<stop  offset="0.9036" style="stop-color:#FFFFFF"/>
	</linearGradient>
	<polygon class="st2" points="0,70.6 117.2,0 141.7,102.8 53,142.9 	"/>
	<g class="st3">
		<path class="st4" d="M141.7,102.8c0,0-1.4,0.7-3.7,1.9c-2.4,1.2-5.8,2.9-9.9,4.9c-4.1,2-8.9,4.3-14.1,6.7
			c-5.2,2.4-10.7,4.9-16.2,7.5c-5.6,2.5-11.1,4.9-16.3,7.2c-5.2,2.3-10.1,4.3-14.3,6.1c-4.2,1.8-7.7,3.2-10.2,4.2
			c-2.5,1-3.9,1.5-3.9,1.5s1.4-0.7,3.7-1.9c2.4-1.2,5.8-2.9,9.9-4.9c4.1-2,8.9-4.3,14.1-6.7c5.2-2.4,10.7-4.9,16.2-7.5
			c5.6-2.5,11.1-4.9,16.3-7.2c5.2-2.3,10.1-4.3,14.3-6.1c4.2-1.8,7.7-3.2,10.2-4.2C140.2,103.4,141.7,102.8,141.7,102.8z"/>
	</g>
	<g class="st5">
		<path class="st4" d="M117.2,0c0,0,0.5,1.6,1.2,4.4c0.7,2.8,1.9,6.8,3.1,11.6c1.2,4.8,2.7,10.4,4.2,16.4c1.5,6,3,12.4,4.6,18.8
			c1.5,6.4,3,12.9,4.4,18.9c1.4,6,2.5,11.7,3.6,16.5c1.1,4.8,1.8,8.9,2.4,11.7c0.5,2.8,0.9,4.5,0.9,4.5s-0.5-1.6-1.2-4.4
			c-0.7-2.8-1.9-6.8-3.1-11.6c-1.2-4.8-2.7-10.4-4.2-16.4c-1.5-6-3-12.4-4.6-18.8c-1.5-6.4-3-12.9-4.4-18.9
			c-1.4-6-2.5-11.7-3.6-16.5c-1.1-4.8-1.8-8.9-2.4-11.7C117.5,1.6,117.2,0,117.2,0z"/>
	</g>
	<g class="st3">
		<path class="st4" d="M372.7,116c0,0-3.6-0.1-9.9-0.4c-6.3-0.3-15.4-0.7-26.2-1.1c-10.8-0.5-23.5-1.1-37-1.8
			c-13.5-0.7-28-1.5-42.4-2.3c-14.4-0.9-28.9-1.7-42.4-2.5c-13.5-0.9-26.2-1.7-37-2.4c-10.8-0.8-19.8-1.4-26.1-1.9
			c-6.3-0.5-9.9-0.8-9.9-0.8s3.6,0.1,9.9,0.4c6.3,0.3,15.4,0.7,26.2,1.1c10.8,0.5,23.5,1.1,37,1.8c13.5,0.7,28,1.5,42.4,2.3
			c14.4,0.9,28.9,1.7,42.4,2.5c13.5,0.9,26.2,1.7,37,2.4c10.8,0.8,19.8,1.4,26.1,1.9C369,115.7,372.7,116,372.7,116z"/>
	</g>
</g>
<g>
	<path class="st6" d="M217.2,53.2c-4.6-0.4-7.4-2.4-6.9-8.7l0.2-2.4c0.6-6.4,3.7-7.8,8.3-7.4c1.6,0.1,3.6,0.6,4.4,0.9l-0.2,2.7
		c-1.2-0.2-2.9-0.5-4.2-0.6c-3-0.3-4.5,0.7-4.9,4.8l-0.2,2.4c-0.4,4.1,1,5.3,4,5.6c1.4,0.1,3.1,0.2,4.3,0.2l-0.2,2.7
		C220.9,53.3,218.8,53.4,217.2,53.2z"/>
	<path class="st6" d="M229.3,54.3c-3.9-0.3-5.9-2.5-5.5-6.8l0.1-1.7c0.4-4.2,2.7-6.1,6.6-5.7c3.9,0.3,5.9,2.5,5.5,6.8l-0.1,1.7
		C235.6,52.8,233.3,54.6,229.3,54.3z M233,46.6c0.2-2.6-0.6-3.6-2.6-3.8c-2-0.2-3,0.7-3.3,3.3l-0.1,1.7c-0.2,2.6,0.6,3.6,2.6,3.8
		s3-0.7,3.3-3.3L233,46.6z"/>
	<path class="st6" d="M247,55.4l0.7-8.5c0.2-1.9-0.1-2.6-1.7-2.8c-0.9-0.1-2.1,0.2-3.6,0.6L241.5,55l-3.1-0.3l1.2-13.5l3,0.3
		l-0.1,1.1c1.5-0.7,3-1.2,4.5-1c3.8,0.3,4.1,2.6,3.8,5.6l-0.7,8.5L247,55.4z"/>
	<path class="st6" d="M258.1,56.8c-2.7-0.2-3.6-1.4-3.4-4.2l0.6-7.4l-2.5-0.4l0.2-2.3l2.5,0.2l0.3-3.4l3.2,0.3l-0.3,3.4l3.3,0.3
		l-0.2,2.5l-3.3-0.3l-0.6,7.4c-0.1,1.2,0,1.5,1.1,1.6c0.7,0.1,1.7,0.1,2,0.1l-0.2,2.2C260.5,56.7,259.3,56.9,258.1,56.8z"/>
	<path class="st6" d="M267.3,47.1l-0.9,10.1l-3.1-0.3l1.2-13.5l3,0.3l-0.1,1.1c1.4-1,3-1.2,4.7-1l-0.3,2.9
		C270.2,46.5,268.4,46.7,267.3,47.1z"/>
	<path class="st6" d="M278.2,58.5c-3.9-0.3-5.9-2.5-5.5-6.8l0.1-1.7c0.4-4.2,2.7-6.1,6.6-5.7c3.9,0.3,5.9,2.5,5.5,6.8l-0.1,1.7
		C284.4,57.1,282.1,58.9,278.2,58.5z M281.8,50.9c0.2-2.6-0.6-3.6-2.6-3.8c-2-0.2-3,0.7-3.3,3.3l-0.1,1.7c-0.2,2.6,0.6,3.6,2.6,3.8
		c2.1,0.2,3-0.7,3.3-3.3L281.8,50.9z"/>
	<path class="st6" d="M287.3,59l1.6-18.6l3.2,0.3l-1.6,18.6L287.3,59z"/>
	<path class="st6" d="M297.2,54.1l0,0.2c-0.2,2,0,3.3,3.3,3.5c1.4,0.1,3.1,0.1,4.9,0.1l-0.2,2.4c-1,0.2-2.8,0.3-5,0.1
		c-4.9-0.4-6.4-2.4-6-7.2l0.1-0.8c0.4-4.5,2.6-6.5,6.7-6.2c4.5,0.4,5.8,3.4,5.5,7.5l-0.1,1.1L297.2,54.1z M303.2,52.3
		c0.1-1.6,0-3.3-2.6-3.5c-2.5-0.2-3.1,1.5-3.2,3l0,0.2l5.8,0.5L303.2,52.3z"/>
	<path class="st6" d="M312.7,61.5c-1.9-0.2-4-0.7-4.5-0.9l0.2-2.2c0.7,0.1,2.7,0.5,4.4,0.7c2,0.2,2.5-0.2,2.6-1.2
		c0.1-0.9-0.3-1.2-2.2-2.2l-1-0.5c-2.4-1.2-3.5-2.5-3.3-4.6c0.2-2.7,2.1-3.5,5.7-3.2c1.5,0.1,3.5,0.6,4.2,0.9l-0.2,2.2
		c-1.5-0.3-3-0.5-4.1-0.6c-1.6-0.1-2.3-0.1-2.4,0.9c-0.1,0.9,0.4,1.1,2,1.9l1,0.5c2.8,1.4,3.7,2.4,3.5,4.6
		C318.3,60.5,316.5,61.9,312.7,61.5z"/>
	<path class="st6" d="M219.5,82.3c-2.7-0.2-3.6-1.4-3.4-4.2l0.6-7.4l-2.5-0.4l0.2-2.3l2.5,0.2l0.3-3.4l3.2,0.3l-0.3,3.4l3.3,0.3
		l-0.2,2.5L220,71l-0.6,7.4c-0.1,1.2,0,1.5,1.1,1.6c0.7,0.1,1.7,0.1,2,0.1l-0.2,2.2C221.9,82.2,220.7,82.4,219.5,82.3z"/>
	<path class="st6" d="M227.5,76.9l0,0.2c-0.2,2,0,3.3,3.3,3.5c1.4,0.1,3.1,0.1,4.9,0.1l-0.2,2.4c-1,0.2-2.8,0.3-5,0.1
		c-4.9-0.4-6.4-2.4-6-7.2l0.1-0.8c0.4-4.5,2.6-6.5,6.7-6.2c4.5,0.4,5.8,3.4,5.5,7.5l-0.1,1.1L227.5,76.9z M233.6,75.1
		c0.1-1.6,0-3.3-2.6-3.5c-2.5-0.2-3.1,1.5-3.2,3l0,0.2l5.8,0.5L233.6,75.1z M232.6,68l-3-0.3l3.5-3.3l3.7,0.3L232.6,68z"/>
	<path class="st6" d="M244,84.5c-3.9-0.3-5.5-2.7-5.1-6.7l0.1-1.7c0.4-4.1,2.3-6.1,6.2-5.7c2.1,0.2,3.5,0.6,4.1,0.9l-0.2,2.4
		c-1.7-0.3-2.9-0.5-3.6-0.5c-2-0.2-3.1,0.4-3.4,3.3l-0.1,1.7c-0.3,2.9,0.8,3.7,2.7,3.8c0.7,0.1,1.9,0.1,3.6,0.1l-0.2,2.4
		C247.6,84.4,246.1,84.6,244,84.5z"/>
	<path class="st6" d="M259.5,85.4l0.7-8.5c0.2-1.9-0.1-2.6-1.7-2.8c-0.9-0.1-2.1,0.2-3.6,0.6L254.1,85l-3.1-0.3l1.2-13.5l3,0.3
		l-0.1,1.1c1.5-0.7,3-1.2,4.5-1c3.8,0.3,4.1,2.6,3.8,5.6l-0.7,8.5L259.5,85.4z"/>
	<path class="st6" d="M266.2,86l1.2-13.5l3.2,0.3l-1.2,13.5L266.2,86z M267.5,70.5l0.3-3l3.3,0.3l-0.3,3L267.5,70.5z"/>
	<path class="st6" d="M278.1,87.4c-3.9-0.3-5.5-2.7-5.1-6.7l0.1-1.7c0.4-4.1,2.3-6.1,6.2-5.7c2.1,0.2,3.5,0.6,4.1,0.9l-0.2,2.4
		c-1.7-0.3-2.9-0.5-3.6-0.5c-2-0.2-3.1,0.4-3.4,3.3l-0.1,1.7c-0.3,2.9,0.8,3.7,2.7,3.8c0.7,0.1,1.9,0.1,3.6,0.1l-0.2,2.4
		C281.6,87.4,280.1,87.6,278.1,87.4z"/>
	<path class="st6" d="M290.1,88.5c-3.9-0.3-5.9-2.5-5.5-6.8l0.1-1.7c0.4-4.2,2.7-6.1,6.6-5.7c3.9,0.3,5.9,2.5,5.5,6.8l-0.1,1.7
		C296.4,87,294,88.8,290.1,88.5z M293.8,80.8c0.2-2.6-0.6-3.6-2.6-3.8c-2-0.2-3,0.7-3.3,3.3l-0.1,1.7c-0.2,2.6,0.6,3.6,2.6,3.8
		c2.1,0.2,3-0.7,3.3-3.3L293.8,80.8z"/>
	<path class="st6" d="M303.3,89.6c-1.9-0.2-4-0.7-4.5-0.9l0.2-2.2c0.7,0.1,2.7,0.5,4.4,0.7c2,0.2,2.5-0.2,2.6-1.2
		c0.1-0.9-0.3-1.2-2.2-2.2l-1-0.5c-2.4-1.2-3.5-2.5-3.3-4.6c0.2-2.7,2.1-3.5,5.7-3.2c1.5,0.1,3.5,0.6,4.2,0.9l-0.2,2.2
		c-1.5-0.3-3-0.5-4.1-0.6c-1.6-0.1-2.3-0.1-2.4,0.9c-0.1,0.9,0.4,1.1,2,1.9l1,0.5c2.8,1.4,3.7,2.4,3.5,4.6
		C308.9,88.6,307,89.9,303.3,89.6z"/>
</g>
<g>
</g>
<g>
</g>
<g>
</g>
<g>
</g>
<g>
</g>
<g>
</g>
</svg>
