<?xml version="1.0" encoding="utf-8"?>
<!-- Generator: Adobe Illustrator 24.0.0, SVG Export Plug-In . SVG Version: 6.00 Build 0)  -->
<svg version="1.1" id="Capa_1" xmlns="http://www.w3.org/2000/svg" xmlns:xlink="http://www.w3.org/1999/xlink" x="0px" y="0px"
	 viewBox="0 0 289.6 110.8" style="enable-background:new 0 0 289.6 110.8;" xml:space="preserve">
<style type="text/css">
	.st0{fill:#CCCCCC;}
	.st1{fill:url(#SVGID_1_);}
	.st2{fill:url(#SVGID_2_);}
	.st3{fill:url(#SVGID_3_);}
	.st4{opacity:0.4;}
	.st5{fill:#FFFFFF;}
	.st6{opacity:0.6;}
</style>
<g id="_x34__2_">
	<polygon class="st0" points="103.5,94.4 56.5,110.8 154.6,109.4 221.9,96.6 	"/>
	
		<radialGradient id="SVGID_1_" cx="137.4661" cy="-1652.3528" r="136.8295" gradientTransform="matrix(1 0 0 -1 6.8172 -1435.1202)" gradientUnits="userSpaceOnUse">
		<stop  offset="0.767" style="stop-color:#B8B8B8"/>
		<stop  offset="0.9314" style="stop-color:#E9E9E9"/>
		<stop  offset="1" style="stop-color:#FFFFFF"/>
	</radialGradient>
	<polygon class="st1" points="103.5,94.4 56.5,110.8 154.6,109.4 221.9,96.6 	"/>
	<polygon class="st0" points="221.9,96.6 104.1,97.5 80.9,0 289.6,9.2 	"/>
	
		<linearGradient id="SVGID_2_" gradientUnits="userSpaceOnUse" x1="77.7754" y1="-1483.7543" x2="300.768" y2="-1486.4797" gradientTransform="matrix(1 0 0 -1 6.8172 -1435.1202)">
		<stop  offset="8.394600e-02" style="stop-color:#FFFFFF"/>
		<stop  offset="1" style="stop-color:#C4C4C4"/>
	</linearGradient>
	<polygon class="st2" points="221.9,96.6 104.1,97.5 80.9,0 289.6,9.2 	"/>
	<polygon class="st0" points="56.5,110.8 0,33.7 80.9,0 104.1,97.5 	"/>
	
		<linearGradient id="SVGID_3_" gradientUnits="userSpaceOnUse" x1="1.6919" y1="-1510.4767" x2="92.9414" y2="-1481.556" gradientTransform="matrix(1 0 0 -1 6.8172 -1435.1202)">
		<stop  offset="0" style="stop-color:#C4C4C4"/>
		<stop  offset="0.841" style="stop-color:#F5F5F5"/>
		<stop  offset="1" style="stop-color:#FFFFFF"/>
	</linearGradient>
	<polygon class="st3" points="56.5,110.8 0,33.7 80.9,0 104.1,97.5 	"/>
	<g class="st4">
		<path class="st5" d="M104.1,97.5c0,0-0.7,0.3-2,0.8c-1.3,0.4-3.1,1.2-5.3,1.9c-2.2,0.7-4.8,1.6-7.5,2.4c-2.8,0.9-5.7,1.7-8.7,2.6
			c-3,0.8-6,1.6-8.8,2.3c-2.8,0.7-5.5,1.3-7.7,1.8c-2.3,0.5-4.2,0.9-5.5,1.2c-1.3,0.3-2.1,0.4-2.1,0.4s0.7-0.3,2-0.8
			c1.3-0.4,3.1-1.2,5.3-1.9c2.2-0.7,4.8-1.6,7.5-2.4c2.8-0.9,5.7-1.7,8.7-2.6c3-0.8,6-1.6,8.8-2.3c2.8-0.7,5.5-1.3,7.7-1.8
			c2.3-0.5,4.2-0.9,5.5-1.2C103.3,97.6,104.1,97.5,104.1,97.5z"/>
	</g>
	<g class="st4">
		<path class="st5" d="M80.9,0c0,0,0.4,1.5,1.2,4.1c0.7,2.6,1.8,6.4,3,11c1.2,4.5,2.6,9.8,4,15.5c1.4,5.7,2.9,11.8,4.4,17.9
			c1.4,6.1,2.8,12.2,4.1,17.9c1.3,5.7,2.4,11.1,3.4,15.7c1,4.6,1.7,8.4,2.3,11.1c0.5,2.7,0.8,4.2,0.8,4.2s-0.4-1.5-1.2-4.1
			c-0.7-2.6-1.8-6.4-3-11c-1.2-4.5-2.6-9.8-4-15.5C94.5,61.1,93,55,91.5,49c-1.4-6.1-2.8-12.2-4.1-17.9C86.1,25.3,85,19.9,84,15.4
			c-1-4.6-1.7-8.4-2.3-11.1C81.2,1.5,80.9,0,80.9,0z"/>
	</g>
	<g class="st6">
		<path class="st5" d="M221.9,96.6c0,0-1.8,0.1-5.1,0.2c-3.2,0.1-7.8,0.3-13.3,0.5c-5.5,0.1-12,0.4-18.9,0.4
			c-6.9,0.1-14.3,0.2-21.6,0.3c-7.4,0-14.7,0-21.6,0c-6.9,0-13.3-0.1-18.9-0.2c-5.5-0.1-10.1-0.2-13.3-0.3c-3.2-0.1-5.1-0.2-5.1-0.2
			s1.8-0.1,5.1-0.2c3.2-0.1,7.8-0.3,13.3-0.5c5.5-0.1,12-0.4,18.9-0.4c6.9-0.1,14.3-0.2,21.6-0.3c7.4,0,14.7,0,21.6,0
			c6.9,0,13.3,0.1,18.9,0.2c5.5,0.1,10.1,0.2,13.3,0.3C220,96.6,221.9,96.6,221.9,96.6z"/>
	</g>
</g>
<g>
	<g>
		<path class="st5" d="M127.6,41.1c-4.6-0.1-7.6-1.9-7.4-8.3l0.1-2.4c0.2-6.4,3.2-8,7.8-7.9c1.6,0,3.7,0.4,4.5,0.6l-0.1,2.7
			c-1.2-0.1-2.9-0.3-4.3-0.3c-3-0.1-4.5,0.9-4.6,5l-0.1,2.4c-0.1,4.1,1.3,5.2,4.3,5.3c1.4,0,3.1,0,4.3-0.1l-0.1,2.7
			C131.2,40.9,129.1,41.1,127.6,41.1z"/>
		<path class="st5" d="M139.7,41.4c-3.9-0.1-6-2.2-5.9-6.4l0-1.7c0.1-4.2,2.3-6.2,6.3-6.1c3.9,0.1,6,2.2,5.9,6.4l0,1.7
			C145.9,39.5,143.7,41.5,139.7,41.4z M142.9,33.5c0.1-2.6-0.8-3.6-2.9-3.6c-2-0.1-3,0.9-3,3.5l0,1.7c-0.1,2.6,0.8,3.6,2.9,3.6
			c2.1,0.1,3-0.9,3-3.5L142.9,33.5z"/>
		<path class="st5" d="M157.4,41.5l0.2-8.6c0-1.9-0.3-2.6-1.8-2.7c-0.9,0-2.1,0.3-3.6,0.8L152,41.3l-3.1-0.1l0.3-13.5l3,0.1l0,1.1
			c1.5-0.8,3-1.3,4.5-1.3c3.8,0.1,4.3,2.3,4.2,5.4l-0.2,8.6L157.4,41.5z"/>
		<path class="st5" d="M168.6,42.1c-2.7-0.1-3.7-1.1-3.6-4l0.2-7.4l-2.5-0.3l0.1-2.3l2.5,0.1l0.1-3.4l3.2,0.1l-0.1,3.4l3.3,0.1
			l-0.1,2.5l-3.3-0.1l-0.2,7.4c0,1.2,0.1,1.5,1.2,1.5c0.7,0,1.7,0,2,0l-0.1,2.2C171,41.9,169.8,42.1,168.6,42.1z"/>
		<path class="st5" d="M177.2,31.8l-0.3,10.1l-3.1-0.1l0.3-13.5l3,0.1l0,1.1c1.3-1.1,3-1.4,4.6-1.3l-0.1,2.9
			C180,31.1,178.2,31.4,177.2,31.8z"/>
		<path class="st5" d="M188.7,42.6c-3.9-0.1-6-2.2-5.9-6.4l0-1.7c0.1-4.2,2.3-6.2,6.3-6.1c3.9,0.1,6,2.2,5.9,6.4l0,1.7
			C194.9,40.7,192.7,42.7,188.7,42.6z M191.9,34.7c0.1-2.6-0.8-3.6-2.9-3.6c-2-0.1-3,0.9-3,3.5l0,1.7c-0.1,2.6,0.8,3.6,2.9,3.6
			c2.1,0.1,3-0.9,3-3.5L191.9,34.7z"/>
		<path class="st5" d="M197.9,42.5l0.5-18.6l3.2,0.1l-0.5,18.6L197.9,42.5z"/>
		<path class="st5" d="M207.4,36.9l0,0.2c0,2,0.2,3.2,3.5,3.3c1.4,0,3.1-0.1,4.9-0.2l-0.1,2.4c-1,0.2-2.8,0.5-5,0.5
			c-4.9-0.1-6.6-2-6.4-6.8l0-0.8c0.1-4.5,2.2-6.7,6.3-6.6c4.5,0.1,6,3.1,5.9,7.2l0,1.1L207.4,36.9z M213.4,34.8
			c0-1.6-0.2-3.3-2.8-3.3c-2.5-0.1-3,1.7-3,3.2l0,0.2l5.9,0.1L213.4,34.8z"/>
		<path class="st5" d="M223.4,43.4c-1.9,0-4-0.4-4.6-0.6l0.1-2.3c0.7,0.1,2.7,0.4,4.5,0.4c2,0,2.5-0.4,2.5-1.4c0-0.9-0.4-1.2-2.4-2
			l-1-0.4c-2.5-1.1-3.7-2.3-3.6-4.3c0.1-2.7,1.9-3.6,5.5-3.5c1.5,0,3.5,0.4,4.2,0.6l-0.1,2.2c-1.5-0.2-3-0.3-4.2-0.3
			c-1.6,0-2.3,0.1-2.4,1c0,0.9,0.5,1.1,2.1,1.8l1.1,0.5c2.9,1.2,3.9,2.2,3.8,4.4C228.9,42,227.2,43.5,223.4,43.4z"/>
		<path class="st5" d="M109,63.1l0-0.7c-0.7,0.4-1.9,0.9-3.4,0.9c-2,0-3.1-1.1-3.1-3.1l0-0.4c0.1-2.8,2.1-3.2,5.1-3.1l1.3,0l0-0.7
			c0-1.5-0.3-1.8-2.2-1.9c-1.1,0-2.2,0-3.4,0.1l0-1.7c0.5-0.2,2.1-0.5,3.8-0.5c3.4,0.1,4.3,1.3,4.2,4l-0.2,7.1L109,63.1z M109,58.2
			l-1.3,0c-1.8,0-2.6,0.1-2.7,1.5l0,0.5c0,1,0.6,1.3,1.5,1.3c1,0,2.1-0.4,2.5-0.6L109,58.2z"/>
		<path class="st5" d="M120.5,63.3l0-0.5c-0.7,0.4-1.8,0.8-3,0.8c-2.5-0.1-4-1.6-3.9-4.9l0-1.5c0.1-3.8,2-4.9,4.7-4.8
			c0.8,0,1.5,0.1,2.2,0.3l0.1-4l2.5,0.1l-0.4,14.8L120.5,63.3z M120.6,54.7c-0.7-0.1-1.5-0.2-2-0.2c-1.5,0-2.4,0.4-2.4,2.8l0,1.5
			c0,1.9,0.6,2.7,2.1,2.7c0.8,0,1.5-0.2,2.2-0.4L120.6,54.7z"/>
		<path class="st5" d="M137.7,63.8l0.2-7c0-1.2,0-1.9-1.3-1.9c-0.6,0-1.5,0.2-2.2,0.6c0,0.4,0,0.8,0,1.2l-0.2,7l-2.5-0.1l0.2-7
			c0-1.2,0-1.9-1.2-1.9c-0.8,0-1.7,0.3-2.3,0.6l-0.2,8.2l-2.5-0.1l0.3-10.7l2.4,0.1l0,0.9c0.9-0.7,2-1.1,3.2-1c1.3,0,2,0.5,2.4,1.2
			c1.2-0.8,2.4-1.1,3.4-1.1c3,0.1,3.2,2.1,3.1,4l-0.2,7L137.7,63.8z"/>
		<path class="st5" d="M143,63.9l0.3-10.7l2.5,0.1L145.5,64L143,63.9z M143.3,51.6l0.1-2.4l2.6,0.1l-0.1,2.4L143.3,51.6z"/>
		<path class="st5" d="M155.2,64.2l0.2-6.8c0-1.5-0.2-2.1-1.4-2.1c-0.7,0-1.7,0.2-2.8,0.7l-0.2,8.1l-2.5-0.1l0.3-10.7l2.4,0.1l0,0.9
			c1.2-0.6,2.3-1.1,3.5-1c3,0.1,3.4,1.8,3.3,4.3l-0.2,6.8L155.2,64.2z"/>
		<path class="st5" d="M160.5,64.3l0.3-10.7l2.5,0.1L163,64.4L160.5,64.3z M160.8,52l0.1-2.4l2.6,0.1l-0.1,2.4L160.8,52z"/>
		<path class="st5" d="M169.2,64.8c-1.5,0-3.2-0.3-3.6-0.5l0-1.8c0.5,0.1,2.2,0.3,3.5,0.3c1.6,0,2-0.3,2-1.1c0-0.7-0.3-0.9-1.9-1.6
			l-0.8-0.3c-2-0.8-2.9-1.8-2.9-3.4c0.1-2.1,1.5-2.9,4.3-2.8c1.2,0,2.8,0.3,3.3,0.5l0,1.7c-1.2-0.1-2.4-0.2-3.3-0.3
			c-1.3,0-1.8,0.1-1.9,0.8c0,0.7,0.4,0.9,1.7,1.4l0.8,0.4c2.3,1,3.1,1.7,3,3.5C173.5,63.7,172.1,64.9,169.2,64.8z"/>
		<path class="st5" d="M179.6,65.1c-2.1-0.1-2.9-0.9-2.9-3.2l0.1-5.9l-2-0.2l0-1.8l2,0l0.1-2.7l2.5,0.1l-0.1,2.7l2.6,0.1l-0.1,2
			l-2.6-0.1l-0.1,5.8c0,1,0,1.2,1,1.2c0.6,0,1.3,0,1.6,0l0,1.7C181.5,64.9,180.5,65.1,179.6,65.1z"/>
		<path class="st5" d="M186.4,57l-0.2,8l-2.5-0.1l0.3-10.7l2.4,0.1l0,0.9c1-0.9,2.3-1.1,3.7-1l-0.1,2.3
			C188.7,56.4,187.2,56.6,186.4,57z"/>
		<path class="st5" d="M197.1,65.3l0-0.7c-0.7,0.4-1.9,0.9-3.4,0.9c-2,0-3.1-1.1-3.1-3.1l0-0.4c0.1-2.8,2.1-3.2,5.1-3.1l1.3,0l0-0.7
			c0-1.5-0.3-1.8-2.2-1.9c-1.1,0-2.2,0-3.4,0.1l0-1.7c0.5-0.2,2.1-0.5,3.8-0.5c3.4,0.1,4.3,1.3,4.2,4l-0.2,7.1L197.1,65.3z
			 M197.1,60.4l-1.3,0c-1.8,0-2.6,0.1-2.7,1.5l0,0.5c0,1,0.6,1.3,1.5,1.3c1,0,2.1-0.4,2.5-0.6L197.1,60.4z"/>
		<path class="st5" d="M205.8,65.8c-2.1-0.1-2.9-0.9-2.9-3.2l0.1-5.9l-2-0.2l0-1.8l2,0l0.1-2.7l2.5,0.1l-0.1,2.7l2.6,0.1l0,2
			l-2.6-0.1l-0.1,5.8c0,1,0,1.2,1,1.2c0.6,0,1.3,0,1.6,0l0,1.7C207.7,65.6,206.7,65.8,205.8,65.8z"/>
		<path class="st5" d="M210,65.6l0.3-10.7l2.5,0.1l-0.3,10.7L210,65.6z M210.3,53.2l0.1-2.4l2.6,0.1l-0.1,2.4L210.3,53.2z"/>
		<path class="st5" d="M221.2,65.9l-3.6-0.1L214.6,55l2.6,0.1l1.6,6.1c0.3,1,0.5,2,0.7,2.9c0.3-0.9,0.5-1.9,0.8-2.9l1.9-6.1l2.6,0.1
			L221.2,65.9z"/>
		<path class="st5" d="M230.2,66.4c-3.1-0.1-4.8-1.7-4.7-5.1l0-1.3c0.1-3.4,1.8-4.9,4.9-4.8c3.1,0.1,4.8,1.7,4.7,5.1l0,1.3
			C235.1,64.9,233.3,66.4,230.2,66.4z M232.7,60.1c0.1-2.1-0.6-2.8-2.3-2.9c-1.6,0-2.4,0.7-2.4,2.8l0,1.3c-0.1,2.1,0.6,2.8,2.3,2.9
			c1.6,0,2.4-0.7,2.4-2.8L232.7,60.1z"/>
		<path class="st5" d="M240.7,66.6c-1.5,0-3.2-0.3-3.6-0.5l0-1.8c0.5,0.1,2.2,0.3,3.5,0.3c1.6,0,2-0.3,2-1.1c0-0.7-0.3-0.9-1.9-1.6
			l-0.8-0.3c-2-0.8-2.9-1.8-2.9-3.4c0.1-2.1,1.5-2.9,4.3-2.8c1.2,0,2.8,0.3,3.3,0.5l0,1.7c-1.2-0.1-2.4-0.2-3.3-0.3
			c-1.3,0-1.8,0.1-1.9,0.8c0,0.7,0.4,0.9,1.7,1.4l0.8,0.4c2.3,1,3.1,1.7,3,3.5C245,65.5,243.7,66.7,240.7,66.6z"/>
	</g>
</g>
<g>
</g>
<g>
</g>
<g>
</g>
<g>
</g>
<g>
</g>
<g>
</g>
</svg>
