<?xml version="1.0" encoding="utf-8"?>
<!-- Generator: Adobe Illustrator 24.0.0, SVG Export Plug-In . SVG Version: 6.00 Build 0)  -->
<svg version="1.1" id="Capa_1" xmlns="http://www.w3.org/2000/svg" xmlns:xlink="http://www.w3.org/1999/xlink" x="0px" y="0px"
	 viewBox="0 0 133.3 94.9" style="enable-background:new 0 0 133.3 94.9;" xml:space="preserve">
<style type="text/css">
	.st0{fill:#CCCCCC;}
	.st1{fill:url(#SVGID_1_);}
	.st2{fill:url(#SVGID_2_);}
	.st3{opacity:0.4;}
	.st4{fill:#FFFFFF;}
</style>
<g id="_x35__2_">
	<polygon class="st0" points="60.5,94.9 38.6,2.9 133.3,1 	"/>
	
		<linearGradient id="SVGID_1_" gradientUnits="userSpaceOnUse" x1="209.6381" y1="-1116.4298" x2="22.2177" y2="-1113.1295" gradientTransform="matrix(1 0 0 -1 6.8172 -1066.3639)">
		<stop  offset="0.5348" style="stop-color:#676767"/>
		<stop  offset="0.64" style="stop-color:#8C8C8C"/>
		<stop  offset="0.887" style="stop-color:#DEDEDE"/>
		<stop  offset="1" style="stop-color:#FFFFFF"/>
	</linearGradient>
	<polygon class="st1" points="60.5,94.9 38.6,2.9 133.3,1 	"/>
	<polygon class="st0" points="60.5,94.9 0,12.4 38.6,2.9 	"/>
	
		<linearGradient id="SVGID_2_" gradientUnits="userSpaceOnUse" x1="3.5612" y1="-1130.1184" x2="67.4543" y2="-1097.7515" gradientTransform="matrix(1 0 0 -1 6.8172 -1066.3639)">
		<stop  offset="0.2455" style="stop-color:#959595"/>
		<stop  offset="0.3146" style="stop-color:#9A9A9A"/>
		<stop  offset="0.3917" style="stop-color:#A7A7A7"/>
		<stop  offset="0.4728" style="stop-color:#BDBDBD"/>
		<stop  offset="0.5559" style="stop-color:#DCDCDC"/>
		<stop  offset="0.6309" style="stop-color:#FFFFFF"/>
	</linearGradient>
	<polygon class="st2" points="60.5,94.9 0,12.4 38.6,2.9 	"/>
	<g class="st3">
		<path class="st4" d="M38.6,2.9c0,0,0.4,1.4,1.1,3.9c0.7,2.5,1.7,6,2.8,10.3c1.1,4.3,2.5,9.3,3.8,14.7c1.3,5.4,2.7,11.1,4.1,16.9
			c1.3,5.8,2.6,11.5,3.9,16.9c1.2,5.4,2.3,10.5,3.2,14.8c0.9,4.3,1.6,8,2.1,10.5c0.5,2.5,0.7,4,0.7,4s-0.4-1.4-1.1-3.9
			c-0.7-2.5-1.7-6-2.8-10.3c-1.1-4.3-2.5-9.3-3.8-14.7c-1.3-5.4-2.7-11.1-4.1-16.9c-1.3-5.8-2.6-11.5-3.9-16.9
			c-1.2-5.4-2.3-10.5-3.2-14.8c-0.9-4.3-1.6-8-2.1-10.5C38.9,4.3,38.6,2.9,38.6,2.9z"/>
	</g>
	<g class="st3">
		<path class="st4" d="M0,12.3c0,0,0.6-0.3,1.6-0.7c1-0.4,2.5-1.1,4.2-1.7c1.8-0.7,3.8-1.4,6.1-2c1.1-0.3,2.3-0.7,3.5-1
			c1.2-0.3,2.4-0.6,3.6-0.9c1.2-0.3,2.4-0.6,3.6-0.8c1.2-0.3,2.4-0.5,3.5-0.7c2.3-0.4,4.4-0.8,6.3-1c1.9-0.3,3.4-0.3,4.5-0.5
			c1.1-0.1,1.7-0.1,1.7-0.1l0,0.2c0,0-9.6,2.4-19.3,4.9C9.7,10.2,0,12.5,0,12.5L0,12.3z"/>
	</g>
	<g class="st3">
		<path class="st4" d="M38.6,2.8c0,0,1.5-0.2,4.1-0.4c2.6-0.2,6.3-0.6,10.7-0.8c4.4-0.2,9.6-0.7,15.1-0.8C74.1,0.5,80,0.3,85.9,0.1
			c5.9,0,11.8-0.1,17.4-0.1c5.5,0,10.7,0.2,15.2,0.2c4.4,0.1,8.1,0.3,10.7,0.4c2.6,0.1,4.1,0.3,4.1,0.3l0,0.2c0,0-23.7,0.5-47.3,1
			C62.3,2.6,38.6,3,38.6,3L38.6,2.8z"/>
	</g>
</g>
<g>
	<g>
		<path class="st4" d="M58.7,43.7l0.4-16.3l10.4,0.3l-0.1,2.6L62.1,30L62,34.1l6.9,0.2l-0.1,2.5l-6.9-0.2l-0.1,4.6l7.3,0.2l-0.1,2.5
			L58.7,43.7z"/>
		<path class="st4" d="M76.9,38.3c-0.6,0-1.2,0-1.8-0.1L75,44.1L72,44l0.4-16.3c1.6,0,3,0,4.6,0c4,0.1,7.2,0.9,7.1,5.3l0,0.2
			C83.9,37.6,80.7,38.4,76.9,38.3z M81,32.9c0-2.5-1.7-2.6-5.3-2.7l-0.4,0l-0.1,5.4c0.6,0,1.2,0.1,1.8,0.1c2.7,0.1,4-0.4,4.1-2.5
			L81,32.9z"/>
		<path class="st4" d="M91.2,38.6c-0.6,0-1.2,0-1.8-0.1l-0.1,5.9l-3-0.1L86.6,28c1.6,0,3,0,4.6,0c4,0.1,7.2,0.9,7.1,5.3l0,0.2
			C98.2,38,95,38.7,91.2,38.6z M95.3,33.3c0-2.5-1.7-2.6-5.3-2.7l-0.4,0L89.4,36c0.6,0,1.2,0.1,1.8,0.1c2.7,0.1,4-0.4,4.1-2.5
			L95.3,33.3z"/>
	</g>
</g>
<g>
</g>
<g>
</g>
<g>
</g>
<g>
</g>
<g>
</g>
<g>
</g>
</svg>
