<?xml version="1.0" encoding="utf-8"?>
<!-- Generator: Adobe Illustrator 24.0.0, SVG Export Plug-In . SVG Version: 6.00 Build 0)  -->
<svg version="1.1" id="Capa_1" xmlns="http://www.w3.org/2000/svg" xmlns:xlink="http://www.w3.org/1999/xlink" x="0px" y="0px"
	 viewBox="0 0 90 90" style="enable-background:new 0 0 90 90;" xml:space="preserve">
<style type="text/css">
	.st0{fill:#FFFFFF;}
	.st1{fill:#0099D9;}
</style>
<g>
	<path d="M89.1,76.1L71.2,58.2L84,50.8c1-0.6,1.6-1.7,1.5-2.8c-0.1-1.1-0.8-2.2-1.9-2.6l-57-22.7c-1.1-0.4-2.4-0.2-3.2,0.7
		c-0.9,0.9-1.1,2.1-0.7,3.2l22.7,57c0.4,1.1,1.4,1.8,2.6,1.9c1.1,0.1,2.2-0.5,2.8-1.5l7.4-12.8l17.9,17.9c0.6,0.6,1.3,0.9,2.1,0.9
		c0.8,0,1.6-0.3,2.1-0.9l8.7-8.7C90.3,79.2,90.3,77.3,89.1,76.1L89.1,76.1z"/>
	<path class="st0" d="M78.2,82.7L59.7,64.2c-0.6-0.6-1.3-0.9-2.1-0.9c-0.1,0-0.3,0-0.4,0c-0.9,0.1-1.7,0.7-2.2,1.5l-6.2,10.8
		L30.9,30.9l44.7,17.8L64.8,55c-0.8,0.5-1.4,1.3-1.5,2.2c-0.1,0.9,0.2,1.9,0.9,2.5l18.6,18.6L78.2,82.7z"/>
	<path class="st1" d="M13.2,9C12,7.8,10.1,7.8,9,9c-1.2,1.2-1.2,3.1,0,4.3l6.7,6.7c0.6,0.6,1.4,0.9,2.1,0.9c0.8,0,1.5-0.3,2.1-0.9
		c1.2-1.2,1.2-3.1,0-4.3L13.2,9z"/>
	<path class="st1" d="M15.5,29.8c0-1.7-1.3-3-3-3H3c-1.7,0-3,1.3-3,3c0,1.7,1.3,3,3,3h9.5C14.1,32.8,15.5,31.4,15.5,29.8L15.5,29.8z
		"/>
	<path class="st1" d="M14.3,39.1l-6.7,6.7c-1.2,1.2-1.2,3.1,0,4.3c0.6,0.6,1.4,0.9,2.1,0.9c0.8,0,1.5-0.3,2.1-0.9l6.7-6.7
		c1.2-1.2,1.2-3.1,0-4.3C17.3,37.9,15.4,37.9,14.3,39.1L14.3,39.1z"/>
	<path class="st1" d="M29.8,15.5c1.7,0,3-1.3,3-3V3c0-1.7-1.3-3-3-3c-1.7,0-3,1.3-3,3v9.5C26.8,14.1,28.1,15.5,29.8,15.5L29.8,15.5z
		"/>
	<path class="st1" d="M41.2,19.4c0.8,0,1.5-0.3,2.1-0.9l6.7-6.7c1.2-1.2,1.2-3.1,0-4.3c-1.2-1.2-3.1-1.2-4.3,0L39,14.3
		c-1.2,1.2-1.2,3.1,0,4.3C39.6,19.1,40.4,19.4,41.2,19.4L41.2,19.4z"/>
</g>
</svg>
